<?xml version='1.0' encoding='utf-8'?>
<svg xmlns="http://www.w3.org/2000/svg" version="1.1" viewBox="0 0 720 1424"> <g stroke-linejoin="currentColor"> <path d="m385.57 405.86c-9.599 0.3565-24.723 1.6805-32.973 2.9027-47.18 6.9-87.766 25.003-122.09 54.462-4.685 4.023-16.245 15.608-20.242 20.267-7.9185 9.2936-14.844 19.045-20.369 28.644-9.5481 16.626-18.18 38.014-21.922 54.284-1.8587 8.173-2.8008 14.997-3.1573 23.374-0.22916 5.1942-0.22916 5.678 0.3565 9.4209 0.86565 5.3977 1.7314 9.1661 2.6989 11.458 0.43286 1.0439 0.99299 2.3933 1.2222 2.979l0.40739 1.0692-1.7569 2.6226c-7.0019 10.567-14.233 19.987-31.598 41.095-17.492 21.286-26.505 33.075-33.838 44.227-6.4163 9.8027-9.3699 16.143-10.796 23.272-0.63654 3.0298-0.66201 4.9395-0.17822 7.5112 0.89116 4.6594 2.5461 7.4093 6.7218 11.228 2.7498 2.5208 5.1687 4.2521 7.8167 5.5761 1.1203 0.56015 3.2845 1.706 4.7868 2.5461 5.3979 3.0045 7.8167 3.7683 15.837 5.016 5.2451 0.84025 8.1986 1.5532 9.4717 2.3426 1.8587 1.1712 3.1063 3.3863 2.7244 4.9904-1.0185 4.5066-4.9396 16.906-5.9835 18.969-0.40741 0.81484-1.5023 2.4698-2.4443 3.6919-0.94207 1.2476-2.1388 2.8009-2.6734 3.5138-3.1063 4.0739-4.1248 8.4022-3.1573 13.444 0.84025 4.3539 4.3539 8.9369 9.9555 13.036 3.8447 2.8008 4.2266 3.1827 3.9211 3.7428-0.15277 0.2547-1.7314 2.0369-3.5392 3.9211s-3.8192 4.2265-4.4812 5.2196c-1.5786 2.3934-2.6989 5.2706-2.8262 7.3584-0.10185 1.5278-0.02545 1.8077 0.89116 3.6919 1.2985 2.6225 3.3354 5.3214 7.2311 9.4208 1.8077 1.9097 3.4882 3.9719 3.972 4.8377 0.45831 0.84016 1.2222 2.0115 1.6804 2.5716 1.0185 1.2732 2.5207 4.787 2.9536 6.8748 0.71294 3.3356-0.28009 7.6131-4.0738 17.925-1.4004 3.8447-2.6735 7.2566-2.8008 7.5877-0.63651 1.502-2.8262 9.166-3.3864 11.89-1.655 7.9186-1.5277 15.15 0.33099 21.515 0.28007 0.91667 1.324 3.1063 2.3425 4.8887 4.634 8.0968 9.5481 13.546 16.346 18.103 1.2731 0.8402 2.699 1.8589 3.1572 2.2662 2.0369 1.7568 9.2426 4.8632 16.728 7.1802l4.5831 1.4512 15.532 0.22925c8.5551 0.12725 25.513 0.38202 37.683 0.5094 12.196 0.15275 23.425 0.38189 24.978 0.50921 7.5621 0.58564 13.418 3.641 18.307 9.5481 0.71292 0.8402 1.7314 1.986 2.2915 2.5462 0.91662 0.94208 2.979 4.4813 5.1178 8.7843 1.0185 2.0879 3.3609 7.995 4.4303 11.254l0.81478 2.4952h4.0484c2.2406 0 4.0484-0.1019 4.0484-0.20374 0-0.48376-2.8262-8.606-4.1757-12.018-2.5971-6.5182-7.3839-15.073-9.2681-16.576-0.43282-0.33095-1.4004-1.3748-2.1897-2.2916-2.3171-2.7752-6.5946-6.1107-10.032-7.842-4.5831-2.3171-8.7842-3.2591-15.71-3.5901-2.648-0.12736-19.733-0.40741-37.938-0.61136-18.205-0.2291-34.068-0.45834-35.264-0.5601-4.4812-0.35643-16.779-4.9142-19.351-7.1548-0.48377-0.43296-1.5022-1.1458-2.2661-1.5786-6.0599-3.5646-12.222-10.49-15.914-17.823-2.4443-4.8632-2.5971-13.571-0.38192-22.253 0.76385-3.0299 2.3425-7.7148 5.3979-15.99 2.6735-7.2055 3.9466-11.687 4.5067-15.684 0.56018-3.8193-0.45826-8.3769-2.9535-13.368-0.662-1.2985-1.4768-2.7244-1.8078-3.1317-0.33097-0.4329-1.1457-1.5786-1.7823-2.5463-0.66199-0.993-2.7753-3.4882-4.6849-5.5505-3.2845-3.5392-5.5761-6.4928-5.5761-7.2566 0-0.58565 1.1967-2.7244 2.317-4.1503 0.6111-0.7638 2.4443-2.7753 4.0739-4.5066 3.31-3.4373 4.634-5.6015 4.9396-8.0203 0.40738-3.2082-0.61109-4.7103-5.8816-8.606-4.5067-3.31-7.0274-5.7798-8.0713-7.8675-0.58558-1.1458-0.68746-1.706-0.68746-3.4374 0-1.1458 0.12732-2.4698 0.2801-2.9281 0.17822-0.45834 1.7059-2.699 3.4373-4.9906 1.8587-2.4696 3.5392-5.0158 4.1502-6.2633 1.0185-2.1134 4.0484-11.458 5.7543-17.645 1.8333-6.7472 0.78934-10.821-3.7428-14.64-3.1827-2.6734-5.8052-3.6156-13.673-4.8377-6.0344-0.94202-8.5551-1.5786-10.719-2.648-6.0089-3.03-10.21-5.3979-11.84-6.62-2.648-2.0623-5.1687-4.7868-5.9071-6.4926-2.2661-5.067 0.33098-13.724 7.5112-25.003 7.3584-11.56 15.252-21.973 35.468-46.697 13.698-16.779 20.471-25.334 24.723-31.19 3.5901-4.9904 9.3189-13.571 9.8027-14.717 0.63653-1.5022 0.0764-3.972-1.9351-8.6061-1.3749-3.1827-2.8262-11.025-2.8262-15.2-1e-5 -14.182 3.7174-31.063 10.77-48.81 10.617-26.734 23.323-46.518 41.935-65.207 6.5182-6.5437 10.821-10.439 17.238-15.532 8.4278-6.6963 16.779-12.45 25.665-17.67 13.036-7.6384 29.154-14.895 43.285-19.453 26.964-8.7589 53.418-12.756 84.532-12.756 18.969-1e-4 32.947 1.0694 53.597 4.0992 11.687 1.7061 31.114 5.5508 33.584 6.62 0.61102 0.25457 2.1642 0.7385 3.4372 1.0185 8.6824 2.0113 18.434 5.0414 27.422 8.5296 3.03 1.1712 5.7034 2.1388 5.958 2.1388 0.91669 0 20.7 9.1918 27.066 12.578 15.659 8.3259 30.146 18.46 42.954 30.07 6.9001 6.2381 18.511 18.511 20.369 21.515 0.38206 0.63647 1.4768 2.0879 2.4446 3.2082 0.94204 1.1458 2.4951 3.1318 3.4373 4.4558 0.9421 1.324 2.1388 2.8771 2.6734 3.4373 0.50926 0.58569 1.1458 1.4513 1.375 1.9097 0.25466 0.48375 2.0878 3.3354 4.0993 6.3398 1.9861 3.0045 4.4558 6.951 5.4742 8.7844 2.317 4.1502 7.8677 15.531 9.65 19.733 0.73825 1.7569 1.706 4.0484 2.1642 5.0923 1.5023 3.361 6.0598 18.001 7.1293 22.915 0.35645 1.6042 0.8656 3.4374 1.1204 4.0739 0.96753 2.3423 3.7428 17.619 4.6085 25.207 1.4513 13.215 1.8841 30.732 1.0184 43.285-2.4188 35.29-10.337 67.015-24.799 99.504-4.9142 11.076-10.185 19.656-22.304 36.461-8.7844 12.171-14.972 21.515-18.46 27.88-0.53465 0.9676-1.2477 2.1134-1.5786 2.4954-0.30553 0.40726-0.9929 1.5531-1.5023 2.5461-0.50917 1.0184-1.884 3.5646-3.0808 5.7034-4.023 7.2057-8.5296 18.943-10.261 26.811-1.2731 5.7799-1.4004 7.4858-1.3748 17.823 0.07626 27.269 2.7753 52.12 10.948 100.57 1.4769 8.7589 3.0555 18.129 3.4883 20.802l0.8148 4.9141h8.0714l-0.1782-1.0948c-0.10194-0.58564-0.28016-1.4768-0.4075-1.9606-0.3055-1.1457-5.0924-29.536-7.0784-42.012-5.576-34.908-7.7402-57.187-7.7658-80.204-0.02563-9.8028 0.0254-11.687 0.43274-13.877 1.2731-7.2056 4.023-15.353 8.0967-24.061 1.4768-3.1064 5.8053-10.974 6.4673-11.712 0.33106-0.35651 0.94215-1.375 1.4004-2.2916 2.7499-5.5252 6.8237-11.661 19.835-29.917 12.858-18.052 17.339-25.742 23.552-40.331 9.93-23.323 16.397-45.474 20.267-69.357 2.3678-14.666 3.31-25.411 3.4882-40.127 0.22926-17.721-0.61095-30.172-3.0045-44.049-1.0947-6.4163-2.9535-15.15-3.3608-15.99-0.20375-0.38186-0.58555-1.6296-0.81469-2.75-1.1713-5.3468-5.8817-20.318-7.8168-24.799-4.0484-9.4464-7.2312-16.27-10.185-21.795-2.8771-5.347-4.0737-7.3586-7.5366-12.527-1.6551-2.4952-3.3354-5.1177-3.743-5.8052-0.40735-0.71289-1.3748-2.0879-2.1642-3.0554-0.76392-0.99305-2.0369-2.6226-2.8008-3.6666-0.73854-1.0183-2.0879-2.7498-2.9791-3.8191-0.91651-1.0694-1.8587-2.3426-2.1133-2.8263-1.1459-2.2406-13.036-15.022-19.733-21.235-15.099-14.029-32.514-26.149-50.439-35.111-7.8423-3.9211-23.425-10.974-25.054-11.33-0.63654-0.1273-3.2082-1.044-5.7289-2.0369-7.5111-2.9028-17.441-6.06-25.003-7.9187-2.2661-0.56006-4.4558-1.1967-4.8632-1.4002-0.89111-0.45835-5.1432-1.4259-14.691-3.3611-25.793-5.1941-48.402-7.6385-72.438-7.8421-6.0853-0.05091-12.171-0.05091-13.495 0z"/> <path d="m442.68 429.64c-1.9861 0.99318-4.0484 3.1828-4.4558 4.736l-0.30555 1.1202-15.175 0.05103-15.15 0.07645-19.478 10.235-19.478 10.261h-13.367l-0.25464-0.71302c-0.45828-1.2475-0.86569-1.9096-1.986-3.1317-1.4768-1.6549-3.31-2.5207-5.7034-2.6988-3.8193-0.28009-6.9765 1.5277-8.657 4.9649-0.7384 1.5023-0.84022 1.9351-0.84022 3.743 0 1.7822 0.10182 2.2661 0.81475 3.7174 1.0185 2.0624 2.3425 3.4118 4.1502 4.2774 1.1968 0.56014 1.7314 0.66199 3.8193 0.66199 2.0879 3e-5 2.6225-0.10181 3.8448-0.68741 1.8078-0.84021 3.4118-2.4189 4.2011-4.1501l0.6111-1.3241 2.7244-0.15274c1.4768-0.10181 4.8122-0.17819 7.3584-0.17819l4.6849-1.4e-4 39.007-20.624 14.309-2e-4 14.309 1.3e-4 0.61112 1.3238c0.76388 1.6805 2.9026 3.8701 4.5067 4.6086 1.7313 0.76382 5.5251 0.76382 7.2565-0.02546 1.6295-0.71304 3.6155-2.6226 4.4048-4.2012 0.56017-1.1203 0.6366-1.6295 0.6366-3.8701s-0.07643-2.7499-0.6366-3.8702c-0.81474-1.5786-2.8008-3.4882-4.4048-4.2012-0.81472-0.35638-1.9096-0.56002-3.4882-0.6364-2.1642-0.12742-2.3679-0.07648-3.8701 0.6873zm6.3653 4.2522c1.1967 0.71289 1.7823 1.9095 1.7823 3.6155 0 1.7823-0.7638 3.4119-1.9351 4.0229-1.1712 0.63653-4.0484 0.58576-4.9649-0.10181-1.2986-0.94213-1.8332-2.0625-1.8332-3.692 0-2.1641 0.99297-3.7427 2.6989-4.2774 1.0694-0.35651 3.31-0.10181 4.2521 0.43289zm-100.73 20.217c1.0185 0.38184 1.8587 1.222 2.3934 2.3933 0.81474 1.7824 0.48375 3.6921-0.91664 5.0414-1.7059 1.655-4.2266 1.8333-5.8817 0.35647-1.4258-1.2221-1.8078-2.317-1.6804-4.6848 0.12728-2.2407 3.641-4.0484 6.0854-3.1063z"/> <path d="m490.83 436.47c-2.1642 1.044-3.4372 2.2916-4.4048 4.2267l-0.7894 1.6294-7.2565 0.1019c-7.1547 0.07639-7.2565 0.07639-7.8167 0.6619l-0.58564 0.58576v43.59c7e-5 23.959 0.07642 43.896 0.17826 44.252 0.1019 0.38196 0.40744 0.78936 0.63654 0.89116 0.2547 0.12745 13.367 0.25465 29.179 0.30555l28.695 0.05091v40.866l1e-4 40.866-5.8053-1.2e-4 -5.8052 1.2e-4 -0.33096-0.96771c-0.86564-2.3933-3.2082-4.6085-5.6016-5.3214-1.9351-0.5602-5.1177-0.35644-6.5945 0.4074-1.6041 0.8147-3.31 2.4698-4.0739 3.9721-0.61102 1.1203-0.68743 1.5531-0.68743 3.8192s0.07641 2.6989 0.71295 3.9974c0.91662 1.8332 2.4697 3.4119 4.2521 4.2521 1.1457 0.53466 1.7823 0.662 3.5646 0.662 1.9605 0 2.3424-0.0764 3.8702-0.84023 1.9096-0.94217 3.31-2.3679 4.4303-4.5068l0.73841-1.3749 7.3075-0.07634c6.62-0.07642 7.3584-0.12732 7.7659-0.53476 0.43275-0.4327 0.4582-2.4443 0.53456-39.975 0.0509-21.744 0-41.604-0.07642-44.15l-0.17824-4.634-0.8148-0.30555c-0.8402-0.33099-22.177-0.66195-45.78-0.71295l-11.916-0.0255-3e-5 -40.738v-40.713l5.1688-0.07645c2.8262-0.05078 5.3724-0.05078 5.6525 0 0.33093 0.05106 0.78928 0.58564 1.2476 1.4768 0.96752 1.8334 2.5461 3.4374 4.252 4.354 1.2222 0.63639 1.6296 0.71286 3.7938 0.71286 1.9606 0 2.648-0.10184 3.6155-0.56012 1.8078-0.81472 3.5901-2.6225 4.4304-4.4812 0.63654-1.3494 0.73837-1.8842 0.73837-3.7429 0-2.6225-0.53473-3.9466-2.317-5.8562-1.706-1.8332-3.3355-2.5462-6.1108-2.6989-2.1388-0.12741-2.3679-0.10195-3.8193 0.61108zm6.2381 4.303c1.1457 0.86563 1.6804 2.0624 1.6804 3.7683 0 1.9605-0.63653 3.1063-2.1642 3.8956-2.3424 1.2222-5.1432 0.38198-6.1363-1.8331-1.1203-2.4444-0.25454-5.1433 1.9351-6.1873 1.0694-0.4838 3.7938-0.28 4.6849 0.35653zm13.036 171.69c3.2336 0.8912 3.7174 6.2127 0.6874 8.0204-1.1711 0.68743-3.5645 0.68743-4.7867 0-1.8333-1.0695-2.5717-3.972-1.5022-6.1362 0.86569-1.8077 3.1317-2.5715 5.6015-1.8841z"/> <path d="m320.11 451.11c-4.7104 1.3494-7.4857 6.0853-6.34 10.898 0.22912 0.94201 0.25458 1.3749 0.05093 1.4511-0.68747 0.22933-21.617 14.666-26.658 18.383-0.73842 0.5347-2.8772 2.0879-4.8123 3.4118-1.9096 1.3494-4.9904 3.5137-6.8237 4.812-1.8587 1.3242-4.4048 3.1064-5.6779 3.9977-1.2476 0.89107-3.5392 2.4951-5.0923 3.5645-1.5277 1.0694-3.5646 2.4699-4.5067 3.1318-0.94208 0.66212-1.8333 1.1967-2.0115 1.1967s-0.78931-0.28003-1.4004-0.63653c-1.5532-0.91657-3.9975-1.4767-5.4233-1.2731-2.8772 0.40732-5.5761 2.2916-6.9001 4.7615-1.1458 2.164-1.3495 4.9139-0.50925 7.129 0.71294 1.9351 2.648 4.0485 4.5321 4.9652 1.2476 0.61105 1.7569 0.71286 3.6156 0.71286 1.8078 0 2.3934-0.10181 3.6156-0.68762 1.7314-0.8147 3.5646-2.4441 4.4812-3.9972 0.63658-1.0694 0.68748-1.4259 0.71298-4.0485 0.02545-2.8517 0.05087-2.9026 0.76385-3.6155 0.40738-0.40743 4.5321-3.3865 9.1406-6.62 4.634-3.2593 9.1407-6.4673 10.057-7.1039 0.91665-0.66193 3.7683-2.6988 6.3654-4.532 2.597-1.8077 10.185-7.1801 16.881-11.916l12.196-8.606 0.91662 0.56015c2.0879 1.2476 2.6735 1.4258 5.0159 1.4258 2.037 0 2.4444-0.07636 3.7683-0.76392 3.1064-1.5531 5.016-4.6085 5.016-8.0203 0-4.6595-3.5392-8.5043-8.0968-8.8097-0.99298-0.05094-2.1896 0.05102-2.8771 0.22922zm5.0922 5.1686c1.1968 1.0693 1.9351 2.8008 1.706 3.9721-0.45834 2.2661-2.4442 4.0229-4.5576 4.0229-3.8193 0-5.9326-4.685-3.4373-7.5366 1.0439-1.1712 1.4768-1.3496 3.5646-1.3496 1.6295-0.02545 1.7823 0.02545 2.7243 0.89122zm-71.725 48.224c2.3934 0.66185 3.8192 3.1063 3.2336 5.4741-0.86573 3.3356-4.9396 4.5577-7.4603 2.2152-2.5207-2.3678-1.604-6.4418 1.7568-7.6384 0.99301-0.3565 1.3495-0.3565 2.4698-0.0509z"/> <path d="m445.97 457.12c-2.0878 1.0184-3.9465 2.8771-4.5321 4.5575l-0.45835 1.2985-41.528 0.1528-0.94202 0.58563-0.96759 0.61105v9.3954l-7e-5 9.3952h-38.956l-0.63654-1.273c-1.9351-3.8193-5.5761-5.7798-9.4717-5.0923-4.5067 0.76376-7.1802 3.7681-7.4093 8.2495-0.1273 2.6225 0.48372 4.4049 2.1897 6.2889 1.7314 1.9351 3.641 2.7754 6.34 2.7754 2.9281 0 4.5322-0.63665 6.4418-2.5717 1.2985-1.3239 1.655-1.8842 2.1387-3.361 0.12734-0.40733 1.375-0.43277 21.235-0.43277 19.784 0 21.133-0.02546 21.49-0.45834 0.96753-1.0949 1.0185-1.5276 1.1457-10.643l0.15283-9.0133 19.351-0.051 19.325-0.07647 0.73837 1.4258c1.324 2.6481 2.7753 3.8957 5.3214 4.6595 1.8332 0.5347 3.6918 0.50924 5.6525-0.10184 2.0879-0.63654 3.641-1.9605 4.8122-4.1248 0.81479-1.5022 0.86569-1.7567 0.86569-4.0229 0-2.0879-0.1018-2.6226-0.66198-3.8192-0.94208-1.986-2.2916-3.4119-3.972-4.2521-1.1967-0.56016-1.8587-0.71302-3.7428-0.7894-2.1388-0.07624-2.4443-0.02533-3.9211 0.6876zm5.8053 4.0992c2.2406 1.1457 3.0554 4.405 1.604 6.4417-1.0439 1.5023-2.1642 2.0115-4.0484 1.9097-1.2222-0.07634-1.7568-0.25467-2.4698-0.7894-1.7569-1.3494-2.2406-4.4812-0.94208-6.2888 1.1712-1.655 3.921-2.2661 5.8562-1.2732zm-100.52 19.911c2.0879 0.61122 3.5646 3.2083 3.0044 5.2452-0.81475 3.1062-4.3029 4.5066-7.0019 2.8516-2.3425-1.4512-2.5716-5.576-0.40741-7.3329 1.2731-1.0184 2.699-1.273 4.4049-0.76389z"/> <path d="m515.25 457.27c-1.9096 0.96759-3.4373 2.4189-4.4303 4.252-0.78928 1.4768-0.8657 1.7824-0.8657 3.7684 0 1.9096 0.10187 2.3425 0.8148 3.8447 0.89114 1.8332 2.4189 3.4119 4.2011 4.3539 0.9421 0.50925 1.4513 0.5856 3.6409 0.5856 2.2152 0 2.7244-0.1018 3.9976-0.68744 1.8077-0.84018 3.3354-2.3934 4.2265-4.303l0.6875-1.5022 5.7288-0.02544c3.1572 0 5.9325-0.05094 6.1871-0.10196 0.22926-0.0509 0.5857 0.07647 0.78944 0.25458 0.1781 0.17832 8.0203 10.007 17.39 21.821 9.3953 11.814 21.031 26.455 25.869 32.54l8.8097 11.076 0.0255 6.2891v6.3144l-1.5532 0.78927c-3.1827 1.604-5.0414 4.2521-5.2705 7.5113-0.22926 3.3609 1.0184 5.907 3.7683 7.7911 4.5321 3.1063 10.516 1.5786 12.909-3.31 0.6366-1.273 0.71301-1.7314 0.71301-3.8702 0-2.1387-0.07641-2.597-0.71301-3.8448-0.84024-1.7566-2.5461-3.3609-4.4048-4.2265l-1.3748-0.61094v-14.615l-10.719-13.495c-5.9071-7.4348-16.703-21.006-23.985-30.172-7.2821-9.1661-14.64-18.409-16.321-20.547l-3.0809-3.8702-7.3837-0.02545-7.3839-1.2e-4 -0.48375-1.1712c-0.66198-1.6296-2.7244-3.7683-4.4303-4.6085-1.1713-0.5603-1.8588-0.71304-3.7175-0.78939-2.0878-0.07639-2.4443-0.02546-3.641 0.5856zm5.0159 3.9465c1.2476 0.33093 2.4444 1.655 2.8263 3.0808 0.56018 2.1134-0.40736 4.2012-2.4189 5.2452-1.1712 0.61108-3.4373 0.35638-4.6086-0.5347-1.0438-0.81485-1.9096-2.419-1.9096-3.5901 0-1.1712 0.8402-2.7499 1.9351-3.641 1.0694-0.8911 2.3933-1.0694 4.1756-0.56017zm76.385 89.574c2.6734 1.3241 2.648 6.34-0.0255 7.6893-1.1713 0.61116-3.4883 0.68756-4.5067 0.15271-2.9536-1.5276-3.0554-6.4672-0.17824-7.9184 1.0693-0.5092 3.6155-0.48377 4.7104 0.0764z"/> <path d="m315.71 477.87c-2.7499 1.1712-4.6086 3.1827-5.3978 5.958-1.9351 6.5944 4.7613 12.68 11.534 10.541l1.5786-0.50925 3.3864 3.972c4.252 4.9904 12.578 14.488 14.309 16.346l1.2985 1.4005 4.6595 0.0764 4.6341 0.1019 0.48374 1.0949c1.0694 2.4187 3.6919 4.5321 6.2635 5.0922 4.4813 0.9166 8.4787-1.2221 10.159-5.4742 0.58554-1.4769 0.58554-4.6594 0.02538-6.3653-0.58556-1.8079-2.3424-3.641-4.4048-4.6341-1.5277-0.73838-1.9351-0.81485-3.8701-0.81485-1.7569 0-2.4188 0.12741-3.5646 0.66211-1.8078 0.81473-3.5392 2.5207-4.4303 4.3538l-0.71297 1.4514h-7.7658l-8.657-10.108-8.6569-10.108 0.63652-1.9096c0.4838-1.5531 0.58565-2.266 0.45836-3.5391-0.17832-2.1389-1.1968-4.2777-2.6481-5.729-1.655-1.6041-3.259-2.2916-5.7797-2.3934-1.7314-0.0764-2.2661 0-3.5392 0.5348zm5.1432 4.0736c0.38197 0.20388 1.0185 0.71305 1.4513 1.1712 0.68747 0.7131 0.76392 0.96775 0.86572 2.8265l0.07639 2.0114-1.1203 1.1203c-2.0623 2.0878-4.3285 2.0878-6.4672 0.02545l-1.1712-1.1203 0.07636-2.0369c0.1019-2.1898 0.45832-2.8265 2.1388-3.8703 0.91662-0.58563 3.1573-0.63654 4.1502-0.12741zm42.215 27.702c1.0439 0.7129 1.8842 2.3169 1.8842 3.6155 0 1.9096-1.9351 4.3031-3.7684 4.6341-1.0184 0.20347-2.648-0.2547-3.6665-0.99303-0.8657-0.662-1.7314-2.3425-1.7314-3.4374 0-0.96745 0.58557-2.4696 1.2222-3.2081 1.324-1.4767 4.303-1.8078 6.0598-0.61108z"/> <path d="m414.68 481.43c-1.9861 1.0184-3.1827 2.1897-3.9975 3.9466-0.43283 0.96771-0.53473 1.655-0.53473 3.972 0 2.5461 0.05093 2.928 0.68747 4.0992 0.84024 1.5787 2.3935 3.0046 4.2776 3.8702 2.0369 0.94214 5.1433 0.96759 7.1292 0.02532 1.7314-0.8147 3.3355-2.3933 4.4048-4.3283l0.81479-1.4768 8.2241-0.07636c4.5321-0.05093 8.4023-0.02548 8.606 0.05092 0.20368 0.07634 0.6365 0.73845 0.99295 1.4514 0.78928 1.7314 2.4443 3.361 4.3539 4.303 1.2986 0.63654 1.7823 0.73834 3.6665 0.73834 1.8333 0 2.3934-0.12726 3.5901-0.71289 1.6804-0.81485 3.7428-2.7499 4.4558-4.1504 0.68743-1.4257 0.71289-6.4416 0-7.7402-1.5532-2.928-4.2013-4.634-7.4348-4.7867-4.1757-0.22921-7.4093 1.7569-8.937 5.4234l-0.45833 1.1458h-17.085l-0.58562-1.375c-0.63654-1.5786-2.5971-3.5901-4.3794-4.5067-0.86572-0.45834-1.655-0.61105-3.5392-0.68744-2.3679-0.10196-2.4698-0.07646-4.2521 0.81476zm5.6525 3.692c1.986 0.91668 3.1572 2.9281 2.8008 4.8122-0.63653 3.59-4.9395 5.0668-7.5875 2.6225-2.4953-2.2915-1.6041-6.34 1.6295-7.6384 0.94207-0.38198 2.037-0.3056 3.1572 0.20365zm34.704-0.10193c1.9097 0.81485 2.6735 2.1135 2.6735 4.6086 0 1.4514-0.58562 2.4188-2.1897 3.5901-1.5277 1.1458-4.634 0.45831-5.8816-1.2731-0.81472-1.0948-0.76388-4.303 0.05094-5.4742 1.1967-1.6549 3.3864-2.2407 5.3469-1.4514z"/> <path d="m494.62 493.14c-3.8702 1.2733-5.958 4.2012-5.958 8.4278 5e-5 3.743 1.4004 6.1617 4.5576 7.8424 1.7569 0.94203 4.6086 1.1967 6.671 0.61097 2.1133-0.61097 4.2775-2.4697 5.2196-4.4812l0.76382-1.604 10.057 0.15274c5.5251 0.07639 11.56 0.22913 13.393 0.33106l3.3608 0.15274 0.5602 1.3495c0.7893 1.9096 3.0045 3.9466 5.1178 4.6595 4.4557 1.5022 9.1916-0.45831 11.05-4.5831 0.6365-1.4258 0.6875-1.7569 0.5856-3.8956-0.2039-3.8192-1.6296-6.1873-4.7105-7.7149-1.3241-0.63656-1.7314-0.71294-3.8957-0.71294-1.9606 0.02547-2.6735 0.12728-3.6665 0.5855-1.9859 0.9168-3.31 2.139-4.252 4.0231l-0.8657 1.6804-11.33-0.15275c-6.2381-0.10183-12.196-0.22925-13.24-0.30548l-1.9351-0.15287-0.84026-1.6296c-0.94208-1.8331-2.6225-3.4882-4.3285-4.2521-1.4513-0.63653-4.8123-0.81473-6.3144-0.33106zm3.8701 3.9976c2.0879 0.58551 3.6919 3.1063 3.2846 5.1941-0.63648 3.4882-4.8631 4.8887-7.4602 2.5208-1.2731-1.1203-1.6551-2.0879-1.5023-3.692 0.1528-1.5532 1.1203-2.8516 2.7498-3.7174 1.2476-0.66198 1.5023-0.68744 2.9281-0.30548zm44.94 1.2984c1.935 0.99323 2.6988 2.6991 2.2408 4.9143-0.4839 2.2661-2.6736 3.6664-5.2707 3.3609-0.89111-0.10197-1.324-0.35655-2.2915-1.2986l-1.1713-1.1713-1e-4 -1.9097c0-1.8587 0.0255-1.9097 1.0185-2.928 0.5601-0.58576 1.2476-1.1714 1.5276-1.2732 0.99306-0.43289 2.8008-0.28004 3.9467 0.30548z"/> <path d="m287.16 498.11c-3.3864 0.89111-5.9071 3.6411-6.4418 7.0528-0.81472 5.067 2.2916 9.4464 7.2566 10.261 3.9211 0.61121 7.5621-1.3748 9.4208-5.1941l0.68744-1.4005h18.74v43.794h-26.913l-0.81479-1.6294c-1.5531-3.1573-4.2012-4.7358-7.9185-4.7358-2.7499 0-4.5322 0.6873-6.2636 2.3934-1.6805 1.7057-2.4188 3.5644-2.4188 6.238-0.02552 5.194 3.5137 8.6824 8.8097 8.6824 2.037 0 3.3864-0.40754 5.0923-1.5023 1.1712-0.78933 2.7753-2.8008 3.1063-3.9466l0.22918-0.78931 14.742-0.12713c11.025-0.102 14.92-0.2294 15.328-0.4584 1.2476-0.6874 1.2222-0.2037 1.2986-21.821 0.10184-21.744-0.02546-28.823-0.5856-29.586-0.30554-0.43289-1.0949-0.45833-11.432-0.53458l-11.076-0.0765-0.40737-1.2731c-0.56022-1.6805-2.6735-3.8448-4.6086-4.7359-1.5787-0.71292-4.354-1.0185-5.8307-0.61108zm4.2012 4.6085c1.8586 0.94232 2.9026 3.3356 2.2915 5.2706-0.61102 1.9096-2.2661 3.1318-4.2011 3.1318-1.5531 0-2.6225-0.48372-3.641-1.6295-0.96753-1.0948-1.1712-1.8332-0.99298-3.361 0.33095-3.03 3.7937-4.8123 6.5436-3.412zm-8.3005 47.97c1.1457 0.4837 2.1133 1.8078 2.4698 3.412 0.53473 2.3169-0.68744 4.3283-3.1572 5.1176-2.4698 0.81474-5.0669-0.9165-5.627-3.7684-0.61108-3.259 3.1318-6.0851 6.3145-4.7612z"/> <path d="m383.87 503.71c-4.303 1.1203-7.1038 6.3398-5.8307 10.872 0.81472 2.8006 2.5971 4.8122 5.296 5.9071 4.1248 1.655 9.5226-0.53475 11.279-4.5832l0.68744-1.6042 27.855 0.07644 27.855 0.0509v19.936c0 12.323 0.10184 20.267 0.25461 20.828 0.12729 0.4837 0.4838 1.1458 0.76389 1.4513 0.50917 0.53475 0.61102 0.53475 9.5736 0.53475l9.0643-1.4e-4 0.71293 1.4768c0.71292 1.5276 2.5971 3.5137 4.023 4.2521 1.1203 0.5855 3.7429 0.8912 5.4742 0.66205 2.9026-0.40755 5.1433-2.1388 6.4927-5.0414 0.58563-1.2476 0.6875-1.7822 0.6875-3.7428 0-1.9352-0.10187-2.5208-0.66199-3.7174-0.81479-1.7312-2.0879-3.0553-3.8702-3.9974-1.2221-0.63654-1.5531-0.68747-4.1247-0.68747-2.4444-3e-5 -2.9536 0.0763-4.023 0.6109-1.6805 0.8403-3.2846 2.5208-4.023 4.2011l-0.61102 1.4259h-15.379l-0.0764-20.445c-0.0764-18.994-0.10185-20.471-0.53474-21.26l-0.45828-0.81475-29.484-1.2e-4 -29.485 2.4e-4 -0.81478-1.6296c-0.91663-1.8587-2.5716-3.5137-4.3539-4.303-1.2476-0.56018-4.8632-0.81473-6.289-0.45822zm4.634 4.4812c0.43285 0.22913 1.1458 0.7384 1.5532 1.1712 0.61108 0.63653 0.73838 0.99305 0.81472 2.4954 0.12736 2.1133-0.28006 3.0045-1.8078 4.1248-0.99297 0.7384-1.1712 0.78933-2.6988 0.63647-2.6226-0.22914-4.0484-1.4004-4.2776-3.5392-0.28009-2.3424 0.58564-4.1502 2.3425-4.9139 1.0439-0.4585 3.0554-0.43305 4.0738 0.02538zm92.629 42.546c1.8587 0.94202 2.7244 2.2406 2.7244 4.0484 0 2.1388-1.324 3.9212-3.3609 4.4812-1.2476 0.33105-2.3425 0.12725-3.5901-0.68745-1.324-0.8658-1.9606-1.9861-1.9606-3.5138 0-3.4373 3.3355-5.7797 6.1872-4.3283z"/> <path d="m553.95 522.17c-3.2335 1.0438-5.7289 4.0227-6.1107 7.282-0.17835 1.4766 0.28 4.0482 0.942 5.3723 0.6875 1.324 3.3355 3.6663 4.634 4.0993l1.0948 0.38194 0.0764 16.881 0.0509 16.881 2.648 2.8263c1.4513 1.5531 4.9651 5.3469 7.8168 8.4277l5.1687 5.6017-1.4002 0.17816c-0.73855 0.07634-2.6482 0.15274-4.2268 0.17824l-2.8262 0.02543-0.30555-0.86563c-0.78931-2.419-3.1572-4.583-5.8307-5.347-5.6271-1.6296-11.254 2.5206-11.28 8.326 0 3.3863 1.706 6.3145 4.685 7.9439 1.2477 0.71302 1.5277 0.76392 4.0229 0.76392 2.317 0 2.8517-0.07636 3.9465-0.63656 1.7824-0.8657 3.4628-2.648 4.2012-4.3793l0.5857-1.4514 14.64-0.15274 0.662-0.61106c0.71286-0.68746 0.8148-1.3749 0.331-2.2407-0.3564-0.66186-4.3031-5.016-12.705-14.055l-6.0598-6.4928v-31.725l1.6041-0.7128c1.9095-0.8912 3.259-2.2916 4.3284-4.6086 1.6041-3.361 0.84033-7.282-1.9096-9.8537-0.6875-0.63642-1.7823-1.4004-2.4443-1.6804-1.5022-0.68738-4.7868-0.86575-6.34-0.35635zm4.7105 4.3538c1.6295 0.7638 2.317 2.0114 2.3424 4.2266 0 1.7314-0.662 2.8772-2.1642 3.7175-2.4444 1.3748-5.2451 0.38187-6.3655-2.2661-0.9165-2.2152-0.0763-4.4813 2.1388-5.6017 1.655-0.8656 2.317-0.89114 4.0485-0.07634zm-3.2847 61.999c1.4769 0.7384 2.1134 1.9605 2.1134 3.9722-0.0255 1.9096-0.5093 2.9789-1.8332 3.8446-1.0184 0.68746-3.4118 0.81484-4.5576 0.2036-1.6549-0.8401-2.7499-3.0553-2.4188-4.8377 0.5347-2.9534 3.9974-4.5829 6.6963-3.1827z"/> <path d="m296.76 525.43c-2.8518 0.4075-5.6779 2.5718-6.5436 4.9905l-0.4838 1.2986-3.8192 0.07637c-2.1133 0.05095-13.673 0.12725-25.665 0.1527-20.955 0.0509-21.846 0.02545-21.846-0.4074 0-0.7384-1.324-2.6224-2.7753-3.921-1.8332-1.6549-3.6919-2.317-6.0344-2.1897-3.3608 0.2292-6.0598 2.0116-7.5366 4.9904-0.71291 1.426-0.84026 1.935-0.84026 3.5901 0 2.9026 0.61112 4.354 2.6481 6.4164 2.0879 2.1134 3.5137 2.648 6.7473 2.4699 3.4373-0.1784 5.8816-1.7569 7.282-4.6596l0.78931-1.6297 5.2705-0.0764c2.9026-0.0508 14.386-0.1271 25.538-0.1526l20.267-0.05095 0.4328 1.1203c0.8148 2.1134 3.2591 4.3286 5.5506 5.0159 0.45835 0.12737 1.7824 0.25456 2.9027 0.25456 2.6988 0.02544 4.2011-0.58551 5.958-2.4697 1.935-2.037 2.4188-3.2846 2.4188-6.2126 0-2.0879-0.10184-2.6225-0.66192-3.8446-1.706-3.6157-5.2705-5.3724-9.599-4.7615zm3.7938 4.6086c1.6295 0.86565 2.3169 2.1643 2.1896 4.1758-0.07635 1.7059-0.50919 2.5208-1.7823 3.4881-0.94202 0.68757-3.6155 0.86577-4.7104 0.30561-2.4443-1.2729-3.1063-4.8377-1.2476-6.951 1.4767-1.6805 3.5391-2.0624 5.5506-1.0185zm-68.543 0.17841c1.3749 0.68734 2.2151 1.8076 2.4189 3.1826 0.33096 2.1897-0.73842 4.0483-2.8772 5.0159-2.2152 1.0185-4.9395-0.1783-5.7289-2.4952-0.50923-1.5532-0.50923-2.266 0.0764-3.5393 0.56017-1.2475 1.1712-1.7822 2.4698-2.266 1.4003-0.50925 2.4953-0.4838 3.641 0.10196z"/> <path d="m396.7 525.4c-2.8517 0.45833-5.5507 2.4699-6.5437 4.9142l-0.56018 1.3494-4.7613 0.15277c-2.5971 0.1018-11.967 0.17816-20.802 0.17816h-16.066l-0.15274-0.73836c-0.2037-0.96745-1.5532-2.699-3.1828-4.0229-2.4697-2.0114-5.8052-2.3933-8.8605-0.9931-4.9905 2.266-6.6201 8.3768-3.5392 13.087 1.7314 2.597 4.2775 3.7683 7.7403 3.5648 3.3609-0.2039 6.2635-2.0626 7.562-4.8632l0.61109-1.324 4.3794-0.1274c2.4188-0.07626 11.738-0.17807 20.726-0.2035l16.295-0.05105 0.61108 1.324c0.73838 1.6551 2.7754 3.7175 4.4049 4.5068 0.99298 0.48377 1.6295 0.5855 3.4882 0.5855 2.9535 0 4.8123-0.7893 6.62-2.7752 1.7568-1.935 2.3679-3.6664 2.2406-6.4418-0.12734-2.7244-0.81478-4.2775-2.5207-5.907-1.9606-1.8587-4.8378-2.6734-7.6894-2.2152zm3.641 4.6086c1.7568 0.91657 2.1642 1.655 2.1642 4.023 0 1.8842-0.0509 2.0624-0.7638 2.8262-0.89117 0.94216-2.4952 1.7315-3.5392 1.7569-1.0694 0-2.8772-0.9421-3.5646-1.884-1.6804-2.2152-0.76382-5.8309 1.7569-6.9257 1.1712-0.5093 2.6734-0.43283 3.9466 0.2037zm-58.918 0.1782c2.9536 1.3494 3.4627 4.9905 1.0185 7.333-1.7569 1.6804-3.7938 1.7822-5.7798 0.25455-1.324-0.99305-1.8587-2.3426-1.6295-4.0484 0.45827-3.2336 3.4372-4.8886 6.3908-3.5392z"/> <path d="m426.44 532.58c-1.706 0.58563-2.5207 1.0949-3.7938 2.4444-1.8077 1.935-2.2915 3.2337-2.317 6.0089 0 2.0878 0.07639 2.4443 0.84024 3.9974 0.94208 1.9096 2.1642 3.1063 4.3539 4.2266l1.4258 0.71289v37.378l2e-5 37.378-1.324 0.50926c-1.7314 0.63644-3.259 2.1641-4.2266 4.2266-0.73844 1.5278-0.81479 1.935-0.81479 3.9974 0.02545 2.9026 0.73835 4.5832 2.8008 6.4673 2.7244 2.4697 6.5691 2.9282 10.083 1.1458 1.7568-0.86576 3.6919-3.1318 4.2011-4.8633 0.63653-2.1897 0.40744-5.1685-0.5347-6.9001-0.91657-1.7058-2.8517-3.5136-4.4303-4.1502l-1.2222-0.53464-0.17825-35.799c-0.07636-19.707-0.22916-36.487-0.3056-37.276l-0.15274-1.4258 1.3495-0.6875c2.3424-1.1712 3.6919-2.3679 4.6085-4.0484 0.78928-1.4768 0.84018-1.6803 0.84018-4.2266 0-2.3171-0.07638-2.8262-0.63652-3.9465-0.84025-1.7059-2.5207-3.3355-4.2776-4.1503-1.7314-0.78925-4.6849-1.0185-6.2889-0.48376zm4.7868 4.6086c1.5531 0.7639 2.0878 1.7569 2.0878 3.8447 0 2.1133-0.50924 3.1318-1.8842 3.8956-1.8587 1.0186-3.7428 0.94215-5.245-0.25465-0.84018-0.66185-1.6296-2.3169-1.655-3.4627 0-1.6041 1.3494-3.8192 2.6734-4.4048 0.76389-0.33096 2.9281-0.12726 4.023 0.38194zm0.38196 92.222c0.331 0.22904 0.94202 0.8656 1.3495 1.4512 0.96752 1.3496 1.0439 3.4627 0.15272 4.7868-0.96754 1.4513-2.0623 2.0114-3.8701 2.0114-1.2221 0-1.7823-0.1271-2.4443-0.58554-1.375-0.91656-2.0114-2.0879-2.0114-3.6665 0-1.6294 0.40738-2.5207 1.655-3.6156 0.84024-0.7382 1.0439-0.7893 2.7498-0.7893 1.2731 0 2.037 0.12745 2.4188 0.4075z"/> <path d="m505.83 546.1c-2.5461 0.8402-4.7358 2.699-5.7798 4.9649-0.78928 1.7314-0.76383 5.5252 0.05096 7.2058 0.86569 1.7567 2.3679 3.3352 4.0738 4.2265 1.2476 0.66185 1.5532 0.96745 1.6805 1.6042 0.07632 0.4327 0.15273 3.4119 0.15273 6.569v5.7799l-1.375 0.58554c-1.655 0.6874-3.7428 2.7754-4.5067 4.5067-0.73842 1.6296-0.91668 4.4813-0.4074 6.238 1.0948 3.743 4.685 6.2127 8.9116 6.1364 3.1572-0.0764 6.0853-1.9607 7.4856-4.8631 0.61116-1.2478 0.68746-1.7316 0.713-3.8448 0-2.088-0.10184-2.6225-0.662-3.8447-0.94203-2.0115-2.317-3.4119-4.2012-4.3285l-1.6295-0.7639 0.0509-6.4162 0.07638-6.4164 1.0185-0.4582c2.6734-1.2476 4.3285-3.1572 5.1178-5.8817 1.5531-5.5252-2.2151-10.872-7.995-11.254-1.0693-0.0509-2.1133 0.02555-2.7753 0.2547zm4.7104 4.7102c2.7499 1.4005 2.7754 6.3656 0.05099 7.715-1.3241 0.68745-3.7683 0.6112-4.8377-0.1273-1.5022-1.0185-1.9096-1.8078-1.9096-3.6919 0-1.9097 0.5601-3.0045 2.0115-3.8958 1.0694-0.6618 3.4118-0.6618 4.6848 0zm0.02554 30.605c1.5532 0.8657 1.9351 1.6295 1.9351 3.7174 0 1.6551-0.0764 1.9096-0.78937 2.8008-0.45828 0.5601-1.2986 1.1713-1.986 1.4513-1.0439 0.4583-1.324 0.4838-2.3679 0.2037-1.5531-0.43294-2.5207-1.1458-3.1317-2.3426-0.58564-1.1712-0.66199-3.0299-0.15282-4.0228 0.50926-0.96757 1.7314-2.0625 2.5971-2.3425 1.0439-0.33106 2.8008-0.10193 3.8957 0.5347z"/> <path d="m212.66 546.33c-3.641 1.3495-5.7798 4.8886-5.5252 9.1152 0.20369 3.4883 1.7569 5.7288 5.2451 7.4603l1.6295 0.78931-0.15274 1.044c-0.0764 0.5602-0.20369 3.4372-0.30554 6.3654l-0.17823 5.347-1.3495 0.71286c-3.31 1.7313-4.7104 3.8956-4.8886 7.5111-0.1273 2.8518 0.50927 4.6596 2.2916 6.5436 2.6226 2.7754 6.5437 3.5648 9.9046 1.9862 2.0114-0.96763 3.6155-2.5207 4.5322-4.4303 0.56016-1.1967 0.662-1.7314 0.662-3.692 0-2.1386-0.05095-2.4188-0.86568-3.8956-1.0185-1.8842-2.8772-3.6664-4.4813-4.2776l-1.1458-0.43275v-13.087l1.2476-0.5347c2.8517-1.1711 5.3724-4.7866 5.3979-7.7402 0.02551-1.8078-0.20369-2.8263-0.91659-4.2776-0.91663-1.7822-2.2916-3.2081-3.8701-3.9974-1.2222-0.58565-1.8332-0.71303-3.8957-0.76394-1.5786-0.05096-2.7498 0.02539-3.3355 0.25454zm5.4997 4.4559c1.4768 1.2731 2.1642 2.3678 2.1642 3.4372 0 1.8588-0.43283 2.8772-1.6296 3.8701-0.99298 0.8149-1.2476 0.89126-2.7244 0.89126-2.5971-6e-5 -4.2521-1.2222-4.6595-3.4374-0.35646-1.8332 0.84024-4.1247 2.5207-4.8631 1.1458-0.50923 3.692-0.4328 4.3285 0.1019zm0.28008 30.732c1.4258 1.0949 1.7568 1.8078 1.7568 3.7174s-0.40736 2.699-1.8842 3.7174c-2.4952 1.6805-6.009 0.4328-6.8746-2.4444-0.63654-2.1898 0.58563-4.7612 2.648-5.5252 1.4258-0.50928 3.2846-0.27994 4.354 0.53473z"/> <path d="m243.68 546.26c-1.1203 0.3564-3.1318 1.7313-3.8192 2.6224-2.2406 2.9537-2.6735 6.6456-1.1458 9.8282 0.76387 1.5785 2.9536 3.6919 4.3285 4.1501l1.0949 0.38204 0.17817 3.9212c0.2292 5.1686 0.3056 5.7797 0.99304 6.4927l0.56016 0.611h26.938l26.938 4e-5 0.63653 1.4005c0.76382 1.7059 2.648 3.6409 4.354 4.4557 1.0948 0.56016 1.6295 0.63641 3.8192 0.63641 2.2661 0 2.6989-0.07625 3.9975-0.71289 1.7059-0.84021 3.0808-2.2916 3.9974-4.2266 0.56014-1.1967 0.66204-1.7823 0.66204-3.7174 0-1.935-0.1019-2.5207-0.66204-3.6918-0.8402-1.7825-2.5207-3.4629-4.303-4.3031-1.1967-0.5603-1.7314-0.6621-3.8193-0.6621-2.1387 0-2.597 0.1018-3.8701 0.713-1.655 0.8148-3.1064 2.3424-4.1757 4.3793l-0.73835 1.4004h-14.004c-23.145 0.02539-25.742-5e-5 -31.369-0.15275l-5.4233-0.17837v-6.2381l1.0948-0.43275c2.1388-0.84035 4.303-3.1574 4.9905-5.296 0.17826-0.53476 0.331-1.9351 0.30555-3.1318 0-1.7314-0.10186-2.3932-0.61106-3.4882-0.89116-1.8841-2.2661-3.3354-3.9211-4.1756-1.2476-0.5856-1.8332-0.71303-3.8956-0.76394-1.324-0.02546-2.7498 0.05091-3.1318 0.17834zm5.1687 4.4556c0.40737 0.20366 1.0184 0.76386 1.3749 1.2221 0.5856 0.76396 0.66198 1.1203 0.66198 2.8517v2.0116l-1.1712 1.0949c-1.1458 1.0438-1.2476 1.0947-2.7753 1.0947-2.1388 0-3.6156-0.7638-4.3794-2.2916-0.33096-0.61093-0.58559-1.5276-0.58559-2.0369 0.02545-1.7313 1.2476-3.5646 2.8008-4.1503 0.78931-0.28 3.3609-0.1782 4.0738 0.20374zm61.897 17.518c2.7499 1.4513 3.0554 5.1179 0.63654 7.2566-1.1203 0.9676-1.8587 1.1967-3.3864 0.9676-2.8517-0.382-4.4558-2.5972-3.8702-5.2706 0.33105-1.4512 1.044-2.3679 2.317-3.0045 1.4258-0.7129 2.9027-0.6874 4.303 0.0509z"/> <path d="m403.04 549.95c-2.5971 0.50922-5.3469 2.9026-6.1617 5.3215l-0.40742 1.1712h-30.477l-30.478-4e-5 -0.81479 0.84021-0.81473 0.84023v28.619l-39.338-3e-5 -39.313 3e-5 -0.50922-1.1458c-0.662-1.5023-2.7499-3.692-4.2776-4.4813-1.0694-0.5346-1.5532-0.6111-4.0229-0.6111-2.7752 0-2.8516 0.02547-4.303 0.89125-1.7059 1.0184-2.9536 2.4189-3.7683 4.2266-0.84024 1.8842-0.78933 5.0669 0.10189 7.0019 0.91659 2.0114 2.2661 3.412 4.2011 4.3285 1.4259 0.68746 1.9351 0.78926 3.7428 0.78926 3.7683 0 6.7474-1.8078 8.1986-4.9905l0.63654-1.4004 40.662-0.1019c22.355-0.0254 40.917-0.17814 41.222-0.27994 1.0694-0.40756 1.1458-1.1204 1.2731-16.015l0.15274-14.182 28.975 5e-5h28.95l0.45832 1.324c0.86572 2.597 3.7938 4.7613 7.1292 5.2195 2.8517 0.382 6.6201-1.2729 8.2241-3.5901 1.7823-2.5716 2.0624-6.2635 0.71289-9.0898-0.78927-1.6295-2.7498-3.6154-4.1757-4.2011-1.375-0.58544-4.1248-0.8147-5.7798-0.48376zm3.8447 4.4813c1.8077 0.68744 3.1063 3.1572 2.648 5.1177-0.76389 3.31-4.9141 4.6595-7.3839 2.4188-0.78933-0.73846-1.5532-2.3934-1.5532-3.4118 0-2.419 1.8842-4.3795 4.252-4.405 0.71298 0 1.6296 0.12735 2.037 0.28015zm-158.12 30.707c1.3495 0.7128 2.4698 2.8263 2.2916 4.3284-0.20372 1.9351-2.1388 3.8702-4.0993 4.0739-3.4882 0.4073-6.2127-3.6664-4.4049-6.5947 1.4513-2.3678 3.7938-3.0553 6.2126-1.8076z"/> <path d="m355.12 573.75c-1.7568 0.35651-3.3354 1.2477-4.5576 2.5716-1.6295 1.7315-2.2406 3.2083-2.3679 5.7035-0.1273 2.5716 0.4838 4.3794 2.1642 6.238 1.4259 1.5787 3.0554 2.4444 5.3979 2.8516 1.5277 0.2547 1.986 0.22923 3.3863-0.15257 2.9281-0.8149 4.965-2.5717 5.9581-5.1689l0.43287-1.0949h44.227l2e-5 21.897v21.897h-31.42l-31.394-5e-5 -0.45834-1.1713c-0.61115-1.604-2.8771-3.9719-4.5067-4.7103-1.8842-0.84015-5.627-0.8656-7.3839-0.0509-1.6041 0.7384-3.4118 2.4442-4.2266 4.0229-0.61102 1.1457-0.68747 1.5531-0.68747 3.9466 0 2.5969 0.02547 2.7243 0.91669 4.3285 2.9535 5.3468 9.6499 6.1362 14.131 1.6549 0.73835-0.73836 1.4768-1.7822 1.7314-2.4442l0.45835-1.1969 32.489-0.1272c18.307-0.0763 32.845-0.2292 33.253-0.3566 0.53477-0.1526 0.8403-0.4581 0.99305-0.99286 0.1019-0.40729 0.28009-11.789 0.35655-25.309l0.1527-24.596-0.63654-0.4074c-0.33102-0.22924-1.2986-0.45824-2.1134-0.53466-0.84024-0.07634-11.509-0.15274-23.705-0.15274l-22.203-0.0254-0.28003-1.1713c-0.43286-1.6804-2.9026-4.1503-4.9396-4.8887-1.7313-0.66184-3.7173-0.86564-5.1687-0.56018zm4.2266 4.8123c1.8841 0.9421 2.597 3.9466 1.4513 6.1617-1.5532 2.979-6.2381 2.979-7.7403-0.02556-1.2731-2.4951-0.33099-5.4487 2.0878-6.518 0.9421-0.40754 2.9535-0.22924 4.2012 0.38186zm-18.307 48.581c1.7823 1.604 2.1897 3.3352 1.2731 5.2959-0.81476 1.7569-1.5786 2.266-3.6155 2.3678-2.037 0.12735-3.0045-0.20365-3.9211-1.273-1.324-1.5786-1.3749-3.7938-0.10188-5.6525 0.89115-1.324 1.655-1.655 3.5901-1.6805 1.655 0 1.7823 0.05093 2.7753 0.9423z"/> <path d="m447.9 573.78c-2.5716 0.382-5.0159 2.3425-6.2635 5.0414-0.56016 1.1713-0.662 1.8079-0.68745 3.5901 0 1.9606 0.07635 2.3424 0.84025 3.8702 1.0694 2.1897 2.7498 3.7173 4.965 4.5321l0.68743 0.2547 0.02554 24.749c0.02545 28.695 0.12726 32.744 0.84018 33.533l0.4838 0.5347 30.681 0.0511 30.681 0.0763 0.35642 1.044c1.044 3.1572 5.5507 5.7798 9.2426 5.347 4.9651-0.58576 8.5296-5.4234 7.6639-10.337-0.5601-3.0299-2.3934-5.3978-5.1941-6.6199-1.6805-0.76395-4.8886-0.76395-6.8237-0.02555-1.6041 0.61108-3.5137 2.3679-4.685 4.3284l-0.76385 1.2476-1.9096 0.1528c-1.044 0.07645-9.1152 0.2037-17.95 0.28-8.8097 0.0765-21.006 0.20373-27.04 0.27997l-11.025 0.15277v-27.397l-7e-5 -27.371 1.5277-0.68746c1.8078-0.8147 3.1063-2.1387 4.0484-4.1501 0.58563-1.2478 0.66198-1.7569 0.66198-3.9721 0-2.4187-0.0509-2.6226-0.86569-4.1502-0.48376-0.89112-1.2222-1.9096-1.655-2.266-1.8587-1.5787-5.2196-2.4698-7.8422-2.088zm4.1758 4.8632c2.1388 1.2223 2.7498 3.8192 1.4003 6.1108-1.655 2.8263-5.6524 2.9536-7.4602 0.22915-1.4004-2.1132-0.8657-4.9395 1.1712-6.3399 1.1712-0.7893 3.4882-0.7893 4.8886 0zm69.205 65.233c2.648 1.757 2.5972 5.8561-0.1018 7.5367-2.8008 1.7058-6.3145 0.1273-6.8747-3.1063-0.33104-1.9096 0.81476-4.1757 2.5208-4.9395 1.1966-0.5603 3.2081-0.33104 4.4557 0.50916z"/> <path d="m610.63 575.03c-1.6805 0.20375-4.3795 1.604-5.4742 2.8772-0.5093 0.5856-1.2222 1.6805-1.5532 2.3934l-0.6112 1.3494-2.8517-1.3e-4c-1.5786 1.3e-4 -2.979 0.10203-3.1319 0.20373-0.61094 0.382-0.89114 1.426-1.1202 3.9465-0.1273 1.4259-0.229 15.506-0.2545 31.292v28.695l-1.6295 0.78926c-3.0299 1.426-4.5322 3.8448-4.685 7.5113-0.1273 3.0808 0.4838 4.7866 2.3933 6.6709 2.9282 2.8515 7.3075 3.3864 10.821 1.2729 2.6226-1.5784 4.5067-5.1684 4.2521-8.1475-0.28015-3.3609-3.1827-6.9764-6.3654-7.9186-0.43299-0.12735-0.45835-1.7823-0.45835-29.943l-1.5e-4 -29.816 1.4513 0.07646c1.5786 0.0764 1.4513-0.051 3.132 2.7499 1.9604 3.2591 7.282 4.5324 11.076 2.6735 3.1826-1.5531 5.2196-5.1687 4.8632-8.6315-0.50927-4.9141-5.0414-8.6314-9.8537-8.0458zm2.5462 4.5832c1.1968 0.3309 2.5207 1.6805 2.8517 2.8771 0.33104 1.1968-0.05091 3.2082-0.78931 4.2522-0.68735 0.9675-1.986 1.5276-3.5901 1.5276-3.4119-6e-5 -5.4743-3.1828-4.0739-6.2891 1.0184-2.2406 3.0554-3.1063 5.6016-2.3678zm-13.316 70.758c4.0229 1.8333 3.1063 7.8676-1.3241 8.5804-1.986 0.3056-3.8955-0.73826-4.7103-2.546-0.7893-1.7569-0.50928-3.5902 0.78931-4.9141 1.5786-1.6042 3.3354-1.986 5.2451-1.1203z"/> <path d="m474.71 584.73c-1.9351 0.58563-4.5067 2.9536-5.3724 4.9141-0.99298 2.2407-0.86569 5.347 0.30557 7.7149 0.71295 1.4004 2.5462 3.1319 4.252 3.9976l1.2986 0.66185v12.985l-1.4004 0.63664c-1.7059 0.73836-3.6155 2.6224-4.4557 4.3283-0.86572 1.808-0.89116 5.2961-0.05096 7.1293 1.2731 2.8008 2.6226 4.0483 5.347 4.9905 4.2266 1.4513 8.7588-0.4327 10.745-4.4812 0.56015-1.1203 0.63654-1.604 0.63654-4.0739 0-2.2151-0.1019-2.979-0.45828-3.6408-1.0185-1.8334-3.6156-4.1504-5.0924-4.5322l-0.68747-0.15277v-13.316l1.1457-0.4837c1.655-0.66211 3.5392-2.4698 4.3794-4.1758 0.63653-1.2986 0.71292-1.7059 0.71292-4.1248-6e-5 -2.4698-0.051-2.7754-0.73843-4.0228-1.5787-2.8263-4.2776-4.4304-7.664-4.5577-1.1203-0.02547-2.4188 0.0509-2.9026 0.2036zm5.0414 4.7614c2.5207 1.5278 2.9027 5.0924 0.73848 7.1038-2.0116 1.8841-5.7034 1.273-7.002-1.1967-1.3495-2.5207-0.12735-5.4997 2.6224-6.4929 1.2222-0.4582 2.1898-0.28 3.6411 0.5858zm-0.2545 30.223c1.6295 0.8403 2.7498 2.9792 2.4443 4.6597-0.3565 2.0877-2.4443 3.8701-4.4813 3.87-1.9605-0.02544-4.1248-1.6805-4.4558-3.4628-0.38195-1.9861 0.61103-4.2266 2.2152-5.0159 1.0694-0.5347 3.3355-0.56016 4.2776-0.051z"/> <path d="m385.32 600.82c-2.3424 0.66198-4.583 2.6225-5.4742 4.8122l-0.4838 1.1712-3.3354 0.1528c-6.5691 0.28014-25.487 0.4073-87.613 0.5857l-63.17 0.1526-0.84026-1.5785c-1.0694-1.986-2.3679-3.3356-3.972-4.1249-1.0694-0.53467-1.6041-0.61096-3.9211-0.61096-2.2406-4e-5 -2.8517 0.10166-3.8193 0.55999-1.6804 0.84021-3.2845 2.5208-4.1502 4.3794-0.66199 1.3749-0.76385 1.9096-0.76385 3.7174 0 2.6734 0.7384 4.4304 2.7244 6.3654 1.7823 1.7058 3.31 2.2916 6.1363 2.2662 1.7314 0 2.266-0.1019 3.5646-0.76377 1.9096-0.94223 3.4119-2.3935 4.303-4.2265l0.68746-1.426 29.459-0.15295c16.194-0.07635 48.301-0.2799 71.343-0.40728 23.043-0.15267 44.43-0.25447 47.537-0.25447l5.6525-1e-4 0.68745 1.5532c0.78927 1.7314 2.4698 3.412 4.3794 4.354 0.99304 0.4838 1.6041 0.58575 3.6155 0.58575 2.1642 0 2.5716-0.07645 3.7683-0.71302 3.9211-2.0624 5.9071-6.3144 4.7613-10.236-0.84024-2.9025-2.648-4.9396-5.2197-5.8561-1.5531-0.5601-4.4303-0.713-5.8562-0.30554zm4.7868 4.4558c1.6805 0.76383 2.648 3.1063 2.1133 5.0923-0.56018 2.0624-2.1898 3.361-4.2266 3.361-1.5022 0-2.648-0.484-3.5137-1.5023-1.4259-1.706-1.5022-3.743-0.20365-5.5506 1.4004-1.9351 3.5646-2.4698 5.8306-1.4004zm-171.66 0.53453c1.9605 0.89125 2.8771 3.0809 2.2915 5.3979-0.58561 2.2152-2.317 3.4119-4.634 3.2337-3.1572-0.25476-5.0414-3.5903-3.6665-6.4164 1.1203-2.3425 3.6665-3.2844 6.009-2.2152z"/> <path d="m625.47 608.36c-1.4768 0.71289-3.7938 2.9534-4.5321 4.4302-0.35644 0.66211-0.7384 1.7824-0.86584 2.4699-0.66187 3.4628 1.706 7.7657 5.1179 9.3444l1.5022 0.68745v32.209l-7.9695 11.56c-4.4049 6.3399-8.4278 12.17-8.9624 12.985l-0.9675 1.4514-6.3401-1e-4h-6.3143l-0.6111-1.4004c-0.76404-1.706-2.4954-3.4374-4.4304-4.3795-1.2731-0.61106-1.7569-0.7129-3.7429-0.7129-1.8333 0-2.5462 0.12739-3.5391 0.58574-2.037 0.94204-3.3356 2.1643-4.2775 4.0739-0.76377 1.5532-0.8402 1.9096-0.8402 3.9976 0 1.935 0.1272 2.5206 0.6874 3.7428 0.7893 1.706 2.5208 3.4883 4.1503 4.2776 1.5786 0.7638 4.6594 0.96745 6.5182 0.4327 2.4698-0.7383 4.8886-3.0299 5.627-5.3468l0.28016-0.94225 5.6268-0.02546c6.4928 6e-5 9.039-0.15244 9.4974-0.53444 0.38186-0.3056 4.6847-6.289 8.6568-12.043 1.5531-2.2406 4.7104-6.8238 7.053-10.185l4.2266-6.1108v-4.4556c0-2.4445 0.0764-10.032 0.1782-16.856l0.15286-12.4 1.0438-0.38195c1.5786-0.6112 3.5901-2.4953 4.4049-4.1757 0.63646-1.2986 0.7129-1.7061 0.7129-4.1248 0-2.3934-0.07644-2.8007-0.6875-3.9465-0.8147-1.5787-2.648-3.3101-4.2266-4.0231-1.7568-0.7893-5.6269-0.8911-7.1292-0.20354zm5.9835 4.5066c0.38183 0.3055 0.99293 0.9166 1.2986 1.4003 0.8147 1.1713 0.71289 3.7683-0.17825 5.016-2.4444 3.4374-8.1732 1.5785-8.1732-2.6481 0-1.2984 0.56007-2.3933 1.7824-3.5136 1.0693-0.9675 1.0947-0.9675 2.8261-0.8657 1.2476 0.0764 1.9352 0.22916 2.4444 0.6111zm-41.935 68.899c1.655 0.86572 2.1388 1.6805 2.2406 3.7938l0.1018 1.7823-1.4004 1.426-1.4259 1.4004-1.7822-0.10195c-2.1133-0.10175-2.9281-0.58538-3.7683-2.2406-0.6875-1.2984-0.76379-3.2334-0.22912-4.2776 1.1203-2.1641 3.9464-2.9536 6.2636-1.7823z"/> <path d="m570.35 609.4c-2.4698 0.63656-4.6596 2.3935-5.7799 4.685l-0.78919 1.6042-7.1802 0.12715c-5.678 0.1274-7.3839 0.22923-8.1477 0.5347l-0.94216 0.40754v25.666l-1.0693 0.30561c-1.6295 0.48385-4.5322 3.5136-5.2451 5.4488-1.1459 3.0808-0.5093 6.2126 1.7822 8.7332 5.1688 5.6526 14.131 2.9538 15.201-4.5575 0.56006-3.9974-1.5532-7.9441-5.0415-9.3953l-1.222-0.48383-0.15285-9.9046c-0.1018-5.4488-0.2546-10.414-0.3309-11.05l-0.17824-1.1712h12.476l0.43274 1.1458c0.5857 1.4768 2.3425 3.4119 3.8958 4.2521 1.5277 0.84021 4.023 1.3494 5.4996 1.1203 1.655-0.2547 4.0738-1.5023 5.2451-2.699 4.2266-4.3539 2.7754-11.56-2.8262-14.131-1.6041-0.73836-4.0994-1.0185-5.6271-0.63656zm3.4118 4.3541c1.8842 0.6364 3.1063 2.3932 3.1063 4.4557 0 4.7105-6.5437 6.0853-8.5042 1.7822-0.8401-1.8588-0.45816-3.8447 0.993-5.1686 1.375-1.2478 2.8008-1.6043 4.4049-1.0694zm-21.49 33.736c2.3679 1.8078 2.3679 5.6015 0.0254 7.2566-1.2221 0.89117-3.641 0.99303-4.9904 0.22906-3.03-1.706-2.9027-6.7219 0.20361-7.944 1.6042-0.6365 3.5647-0.4584 4.7614 0.4583z"/> <path d="m242.61 625.7c-2.5207 0.3565-5.1942 2.3172-6.4418 4.7105-0.63656 1.1457-0.68745 1.5278-0.68745 4.0738 0 3.2592 0.35643 4.2268 2.3679 6.1873 1.8332 1.7822 3.5392 2.4696 6.1617 2.4441 1.8332 0 2.3934-0.1018 3.7428-0.713 1.8587-0.84014 3.6665-2.6478 4.4049-4.3538l0.48378-1.1458h28.033l28.008 1e-4v7.3584c0 8.7587-0.10183 8.4023 2.6989 8.7078 0.96755 0.1273 14.259 0.20363 29.535 0.20363l27.753 0.02552 0.58562 1.4004c0.81478 1.986 3.3355 4.3029 5.296 4.8632 3.1064 0.89114 6.7984 0 8.988-2.1898 2.3424-2.3425 3.2081-6.3653 2.0369-9.4717-0.73836-2.0114-2.3934-3.7683-4.3793-4.6849-1.4004-0.63655-1.9097-0.7385-3.8956-0.7385-2.0879 0-2.4698 0.0765-3.9976 0.84035-1.9096 0.94215-3.2081 2.266-4.0738 4.1758l-0.56017 1.2221-27.931-1.4e-4 -27.931 1.4e-4 -0.10187-7.4602c-0.05093-4.0739-0.17819-7.6386-0.30555-7.8676-0.10183-0.22913-0.38192-0.50926-0.61107-0.63656-0.2291-0.10185-13.571-0.2292-29.637-0.2801l-29.204-0.0765-0.94209-1.7568c-1.0948-2.0879-2.1642-3.1319-4.303-4.0738-1.7314-0.81477-3.2336-1.0186-5.0923-0.76387zm3.59 4.8123c2.7753 1.2476 3.2082 5.1177 0.81479 7.333-2.7499 2.5714-7.3838 0.3818-7.3838-3.4884 0-1.8078 1.0439-3.4119 2.5971-4.0484 1.0184-0.40733 2.8516-0.30548 3.972 0.20374zm133.27 16.448c2.1896 1.1204 3.0044 4.6594 1.5531 6.6964-2.0115 2.8263-6.671 2.1896-7.8931-1.0438-1.4768-3.8701 2.6226-7.5112 6.34-5.6526z"/> <path d="m570.76 642.53c-4.4048 1.7313-6.7728 7.0528-5.0923 11.458l0.6365 1.6805-5.2705 5.2705-5.2451 5.245-118.19-1.2e-4 -0.30554-0.99294c-0.45828-1.5787-2.0369-3.3609-3.7429-4.2775-4.7614-2.5462-10.261-0.8149-12.603 3.9466-0.50925 0.9929-0.6111 1.604-0.6111 3.6154 0 2.9026 0.4583 4.1248 2.2916 6.0853 3.1572 3.3865 8.3005 3.6411 12.272 0.6111 0.91659-0.7129 2.2406-2.6734 2.4952-3.7173 0.10189-0.40737 0.35647-0.6875 0.61108-0.6875 0.22919 0 27.168 0 59.86 3e-5l59.453 1e-4 6.0853-6.0853 6.0599-6.0598 1.5786 0.4838c4.3539 1.3748 8.9115-0.53476 10.898-4.583 0.73826-1.4769 0.84006-1.9351 0.84006-3.743 0-1.6804-0.1272-2.2915-0.68735-3.4882-0.86575-1.8587-2.648-3.641-4.4812-4.4813-2.0114-0.91656-4.965-1.0438-6.8492-0.2799zm5.6271 4.4811c2.5206 1.7315 2.7244 5.347 0.43284 7.282-1.5277 1.2731-4.2776 1.1967-5.8053-0.1527-2.597-2.2916-1.9859-5.8563 1.3241-7.6639 1.0947-0.5857 2.7498-0.3819 4.0484 0.5346zm-144.72 17.721c1.1967 0.8148 1.7823 2.037 1.7823 3.8192 0 4.023-4.7614 5.9071-7.664 3.0045-2.1133-2.1133-1.3495-6.0599 1.4258-7.333 1.1204-0.5091 3.2846-0.2547 4.4558 0.5093z"/> <path d="m402.86 642.5c-1.6296 0.28-2.648 0.8658-4.2267 2.4443-2.0879 2.0878-2.8263 4.4303-2.3679 7.4093 0.50924 3.1318 2.1388 5.3725 4.8886 6.6455l1.4767 0.68746v9.7262l-8.3259 0.15276c-4.6086 0.1018-23.705 0.2546-42.495 0.3565l-34.119 0.1526-0.48373-1.2475c-0.30555-0.84014-1.0184-1.8078-2.1642-2.9535-1.986-1.986-3.2846-2.4952-6.3399-2.4952-1.6041 0-2.1897 0.12724-3.4627 0.73844-2.5716 1.1966-4.3539 3.5391-4.965 6.4926-0.38194 1.9096-0.1782 3.4372 0.7894 5.3979 0.86562 1.8587 2.2915 3.2082 4.2775 4.1502 1.2222 0.5602 1.7568 0.662 3.7174 0.662 2.1133 0 2.4188-0.0764 3.8956-0.8657 1.8587-1.0185 3.7429-2.979 4.1502-4.3284l0.28009-0.9676 4.2521-0.1781c2.317-0.0765 20.318-0.2039 40-0.28016 19.682-0.07634 37.607-0.17828 39.822-0.2547 3.6919-0.1018 4.1248-0.15271 4.8886-0.68744l0.86563-0.5856v-12.985l1.2222-0.48384c1.7314-0.71289 3.6664-2.6481 4.5321-4.5577 0.61115-1.3494 0.71298-1.8842 0.71298-3.7428 0-2.7245-0.56018-4.0739-2.4698-5.958-1.655-1.6805-2.4444-2.0878-4.5322-2.4187-1.8078-0.3056-2.1388-0.3056-3.8192-0.0256zm3.9974 4.4812c3.2845 1.5531 3.4882 5.8307 0.3819 7.9187-1.1203 0.7638-3.2081 0.78925-4.583 0.07623-2.7244-1.3749-3.0045-5.576-0.50924-7.4346 1.706-1.2732 2.9026-1.4004 4.7104-0.5603zm-95.736 21.209c2.5207 1.5533 3.0808 4.685 1.1967 6.9256-0.89114 1.044-1.8841 1.5022-3.31 1.5022-2.5207-0.02544-4.4557-2.0114-4.4557-4.5831 0.02546-1.7821 0.8657-3.1317 2.4697-4.0228 0.84023-0.4838 3.2082-0.3565 4.0994 0.1781z"/> <path d="m516.29 680.41c-2.4953 0.63655-5.296 3.081-6.1107 5.3724l-0.45835 1.2732-6.4927-1e-4c-3.5901 1e-4 -6.9764 0.12744-7.5366 0.2547-2.0369 0.45825-1.9096-0.73834-1.8842 18.052 0.02554 18.205 0.10184 20.65 0.81482 21.337 0.45831 0.45831 1.1712 0.50921 18.969 0.81469l1.3241 0.02547v31.318h-11.865l-0.5856-1.4003c-0.71293-1.7315-2.2661-3.31-4.0993-4.1757-1.2222-0.58565-1.7314-0.66199-3.9466-0.66199-2.2661 0-2.6989 0.07634-3.972 0.71289-1.7569 0.84025-3.3609 2.5462-4.2266 4.4303-0.58563 1.2476-0.63648 1.6296-0.53467 3.7174 0.12729 2.6989 0.81476 4.3538 2.4698 6.0089 2.4698 2.4698 7.0783 3.1573 10.261 1.5278 1.5277-0.78934 3.5901-2.9536 4.1248-4.3539l0.45833-1.1712 7.1802-0.1018c3.9211-0.05104 7.3584-0.2038 7.613-0.3056 1.0694-0.48366 1.0694-0.58565 1.1458-18.485 0.0509-9.4463-7e-5 -17.9-0.0765-18.765-0.10185-0.96735-0.3565-1.8332-0.6365-2.1642l-0.4584-0.58557-19.656-0.1528v-31.802h11.432l0.94208 1.7824c1.7315 3.3099 4.354 4.9139 8.1223 4.9395 1.706 0.0254 2.2661-0.0764 3.4628-0.63656 3.2336-1.5276 4.8377-3.9719 5.0159-7.613 0.2037-3.9719-1.2985-6.6455-4.6085-8.2497-1.9606-0.96756-4.5832-1.3495-6.1872-0.94205zm4.4048 4.7868c2.7754 1.2986 3.0045 5.8817 0.3566 7.6386-1.2222 0.84021-3.9212 0.84021-5.1433 0-1.044-0.68745-2.0115-2.4952-2.0115-3.7682 0-1.2222 0.9675-3.03 2.037-3.7429 1.0439-0.68754 3.4118-0.76384 4.7612-0.12744zm-24.494 71.853c2.0114 0.89123 2.9281 2.8008 2.5462 5.1179-0.4328 2.5714-3.6155 4.252-6.0598 3.2081-1.7059-0.7129-2.7244-2.3679-2.7244-4.3794 0-1.5023 0.53473-2.699 1.5023-3.3864 1.5531-1.1203 3.1318-1.2986 4.7358-0.5603z"/> <path d="m535.95 680.62c-1.5785 0.5346-3.6408 2.4189-4.6084 4.1757-0.5857 1.1204-0.76384 1.7569-0.84026 3.4627-0.20361 3.5648 1.0695 6.1872 3.7683 7.944 4.6086 2.979 11 1.1968 12.985-3.6154l0.6111-1.4514h13.24l2.3171 1.4514c8.6824 5.4996 24.749 15.964 25.029 16.321 0.2293 0.3056 0.3056 1.986 0.3056 6.3909v6.0089l-1.6551 0.8658c-2.1897 1.1203-3.9719 3.0553-4.5575 4.9905-0.6366 2.0114-0.48375 5.398 0.33105 6.9512 0.8656 1.6804 2.4442 3.2588 4.0483 4.0481 1.2476 0.6112 1.706 0.6876 3.9721 0.6876 1.8077 0 2.8517-0.1273 3.5137-0.4075 1.2221-0.5601 3.3863-2.5717 4.1756-3.921 1.1204-1.9096 1.2221-6.3146 0.20375-8.3006-0.76391-1.4768-2.8518-3.4118-4.4304-4.1247l-1.5277-0.68746-0.02537-7.053c0-3.8701-0.07643-7.2564-0.17823-7.4856-0.28014-0.68754-3.8702-3.0808-22.584-15.149l-7.613-4.9141-7.2057-1e-4 -7.2056 1e-4 -0.6875-1.4768c-0.81469-1.7059-2.5971-3.5902-4.1759-4.405-1.5022-0.78937-5.3469-0.94217-7.2057-0.30547zm5.4234 4.2521c0.99306 0.53474 2.0879 2.0624 2.2406 3.1572 0.5348 4.0229-3.5137 6.7728-6.8491 4.6595-1.4767-0.94214-1.986-1.8843-1.986-3.7175 0-1.6804 0.40741-2.546 1.6549-3.6663 0.81482-0.7129 1.0695-0.7893 2.5717-0.7893 0.94213 0 1.9606 0.1526 2.3679 0.35636zm52.171 41.63c1.6295 1.1458 2.2407 4.3032 1.1968 6.1364-0.6365 1.0949-2.3933 2.037-3.8192 2.037-1.3749 0-3.1572-0.94204-3.8701-2.0115-0.45836-0.6621-0.58556-1.2222-0.58556-2.3934-1.3e-4 -3.0045 1.7567-4.6341 4.7612-4.4305 1.0438 0.07635 1.8078 0.3056 2.3169 0.6621z"/> <path d="m426.03 683.34c-2.3425 0.942-3.6665 2.2151-4.8886 4.6339l-0.66199 1.324-4.1503 0.1528c-4.3031 0.1527-13.724 0.3056-31.776 0.53464-17.085 0.20379-26.684 0.38202-29.408 0.53473l-2.5462 0.12738-0.8911-1.6806c-1.044-1.9859-2.8262-3.7682-4.5322-4.5066-1.655-0.73835-4.6849-0.91681-6.3145-0.3565-2.6225 0.89111-4.7358 3.0808-5.7288 5.9325-0.61108 1.8333-0.61108 3.1572 0.02546 5.0668 1.4004 4.1248 4.9141 6.4418 9.268 6.1617 3.03-0.20343 5.4488-1.8585 7.1547-4.8886l0.89113-1.6296 12.68-0.15257c6.951-0.0764 15.761-0.2037 19.529-0.2802 3.7938-0.0509 13.367-0.20364 21.286-0.28l14.437-0.17834 0.66199 1.4005c0.78933 1.655 2.7244 3.5646 4.4304 4.3538 0.96753 0.45824 1.655 0.5602 3.7428 0.5602 2.4443 0 2.6225-0.0255 4.2012-0.91666 3.8447-2.1132 5.4233-6.1108 4.1247-10.337-0.96753-3.0553-2.648-4.6849-5.8561-5.6779-2.1642-0.66184-3.8957-0.6364-5.6779 0.102zm4.634 3.9974c3.8192 1.2731 4.0739 6.569 0.40738 8.3514-1.3495 0.662-2.2916 0.662-3.641 0.05093-1.6296-0.73846-2.4952-2.0624-2.5971-3.9465-0.10184-2.037 0.61111-3.3355 2.2407-4.1757 1.2476-0.61121 2.2915-0.71304 3.5901-0.28014zm-84.329 1.6804c1.8332 1.4768 2.2916 3.6411 1.2222 5.7033-1.1204 2.088-3.641 2.8518-5.9072 1.757-1.8078-0.8658-2.266-1.5531-2.3679-3.5391-0.1273-2.3426 0.4328-3.4374 2.3679-4.4813 1.1967-0.63667 3.4883-0.382 4.685 0.5601z"/> <path d="m474.03 693.96c-3.6919 0.433-6.4163 2.8773-7.3838 6.5946-1.0439 4.0993 0.84024 7.9694 4.9395 10.134l1.5786 0.8402v12.705l-1.4513 0.73837c-2.2152 1.1204-3.5137 2.368-4.4558 4.303-0.73834 1.5024-0.84018 1.9352-0.84018 3.743 0 1.7568 0.12729 2.266 0.81476 3.7428 1.8078 3.8448 5.2196 5.5761 9.8282 4.9905 2.6481-0.35633 4.9396-2.1896 6.2381-5.0159 0.56018-1.1713 0.68747-1.8077 0.68747-3.5901 0-1.9605-0.07639-2.3423-0.84033-3.8702-0.942-1.9096-2.1133-3.0554-4.3794-4.2522l-1.5277-0.81473v-12.68l1.6296-0.7893c1.8333-0.8656 3.4883-2.5208 4.4558-4.4302 0.5347-1.0949 0.5856-1.4513 0.48372-4.0484-0.10183-3.2335-0.3564-3.921-2.0623-5.627-2.1388-2.0878-4.7614-3.0045-7.7149-2.6736zm3.921 5.067c2.6226 1.935 2.2153 6.2381-0.73831 7.7657-1.5023 0.7893-4.0993 0.3055-5.2196-0.9421-0.8912-0.9675-1.1203-1.6041-1.1203-3.1318 0-2.1642 0.73844-3.3609 2.5461-4.252 0.20368-0.1018 1.1203-0.1528 2.037-0.1273 1.2985 0.05094 1.8332 0.20365 2.4952 0.6875zm-0.58558 30.121c2.4954 1.426 3.1319 4.3796 1.4004 6.7473-0.58557 0.8149-1.0439 1.1204-2.0624 1.426-3.2845 0.99303-5.8307-0.86567-5.8307-4.1757 0.02548-3.5645 3.4882-5.7035 6.4926-3.9976z"/> <path d="m556.55 699c-2.317 0.61105-4.8632 2.7754-5.8817 4.9648l-0.6111 1.3495-7.3839 0.1272c-8.3004 0.15286-8.4532 0.17816-8.7333 1.9096-0.1019 0.53465-0.1782 6.238-0.1782 12.68v11.738l-1.4004 0.68747c-2.0115 0.993-3.4882 2.4444-4.3539 4.3285-0.6366 1.3748-0.73844 1.8841-0.713 3.8701 0 2.0114 0.0764 2.4951 0.6875 3.7683 0.8148 1.6296 2.5208 3.2845 4.2522 4.0992 0.94205 0.43285 1.6295 0.53466 3.8192 0.53466 2.317 0 2.8263-0.07626 3.7683-0.58556 1.6806-0.8911 3.2846-2.4952 4.0485-4.0738 0.993-2.0114 1.1203-4.9394 0.3055-7.0529-0.713-1.9096-2.4188-3.7429-4.4558-4.8123l-1.5022-0.7893-0.0764-11.025-0.05103-10.999h5.9835l5.9581 1.3e-4 0.6875 1.4004c0.8402 1.7059 2.9535 3.7683 4.6085 4.5068 0.78931 0.33095 1.9605 0.5601 3.3355 0.66176 2.0368 0.10199 2.1897 0.07654 3.9974-0.8147 3.0045-1.4768 4.6086-3.8701 4.8887-7.2566 0.43286-5.1431-3.1318-9.166-8.275-9.3442-1.0695-0.0509-2.2916 0-2.7244 0.12725zm4.2011 4.4048c1.5023 0.76392 2.6736 2.6226 2.648 4.1757-0.0764 3.8448-4.7867 5.8308-7.5621 3.2082-1.0693-0.99294-1.4513-1.9096-1.4513-3.361 0-1.5531 0.4584-2.546 1.5786-3.4118 1.6295-1.2222 3.1828-1.4003 4.7868-0.61107zm-22.559 33.176c1.4004 0.662 2.2661 2.1132 2.2661 3.7682 0 1.6804-0.5602 2.7754-1.8841 3.7429-3.2082 2.317-7.3839-0.02546-7.0529-3.972 0.28-3.259 3.5646-5.016 6.6709-3.539z"/> <path d="m399.55 701.06c-2.4952 0.43273-4.7613 2.2405-6.0089 4.7867-0.61103 1.2986-0.71289 1.7314-0.71289 3.9974 0 2.2661 0.07636 2.6991 0.68744 3.8194 1.8587 3.5392 5.9071 5.4997 9.7772 4.7104 2.6989-0.5347 4.965-2.368 6.3399-5.067l0.66199-1.2986 5.3725 0.0509 5.3724 0.0763 12.451 26.99c6.8237 14.844 13.647 29.637 15.124 32.871l2.6989 5.9071-1.2731 1.655c-1.6805 2.1898-2.1896 3.7428-2.0369 6.2635 0.35644 5.9071 5.7289 9.4973 11.585 7.7148 2.8772-0.89097 4.8122-2.9534 5.5761-5.9579 0.86562-3.3609 0-6.4417-2.4699-8.7078-1.655-1.5277-2.8007-2.0624-5.5506-2.5207l-1.9096-0.30556-8.2241-17.823c-20.395-44.151-23.17-49.93-24.138-50.287-0.38188-0.15285-3.259-0.25466-6.62-0.25466l-5.9581 6e-5 -0.81472-1.6805c-1.8078-3.6665-5.8562-5.6779-9.9301-4.9394zm3.1318 4.3283c1.1203 0.331 2.3679 1.3241 2.8771 2.317 0.5856 1.1203 0.4838 3.1826-0.22918 4.4048-0.91662 1.5532-2.3679 2.2916-4.1502 2.1134-2.8008-0.28014-4.303-2.0368-4.0993-4.7868 0.15275-2.1134 1.3495-3.5901 3.2845-4.0484 1.1967-0.2801 1.2731-0.2801 2.317 0zm56.423 76.028c4.303 2.5207 1.3494 9.5482-3.4883 8.2495-1.4259-0.3818-2.4189-1.2984-3.0809-2.8517-0.50919-1.1966-0.53464-1.4766-0.28007-2.4698 0.1528-0.61105 0.5347-1.4513 0.8148-1.8586 1.2731-1.7569 3.9975-2.2406 6.0344-1.0694z"/> <path d="m442.43 706.03c-2.7243 0.73825-4.8376 2.317-5.907 4.4047-0.78934 1.5532-1.1203 3.8702-0.78934 5.7035 0.76388 4.2012 3.7938 6.951 8.0713 7.3075l1.9606 0.15257 14.844 33.864c8.1478 18.612 14.844 33.991 14.844 34.144 0 0.12739-0.35644 0.58564-0.78934 1.0186-0.4328 0.40727-1.1458 1.4258-1.5786 2.266-1.0693 2.0878-1.2476 5.1432-0.43285 7.3075 0.71295 1.9097 2.4444 3.8193 4.2776 4.7105 1.273 0.6364 1.7314 0.71287 3.8702 0.7129 2.0878 0 2.6225-0.1019 3.8701-0.6874 1.7569-0.8149 3.4628-2.4699 4.303-4.1504 0.50925-1.0693 0.61109-1.6549 0.61109-3.5645 0-2.0878-0.07633-2.4698-0.84018-3.9976-1.5023-3.0553-3.9975-4.7358-7.4093-4.9649l-1.986-0.15276-1.0949-2.6991c-1.3494-3.3354-9.2681-21.591-20.089-46.314-4.5067-10.286-8.1733-18.791-8.1733-18.944 0-0.15277 0.40738-0.76384 0.89118-1.3749 1.9096-2.3424 2.6989-5.0668 2.1642-7.6384-0.76382-3.6665-3.1063-6.2126-6.4927-7.1037-1.8078-0.45834-2.3934-0.45834-4.1248 0zm3.8957 4.4302c1.5531 0.71301 2.2406 1.8334 2.3424 3.8448 0.10182 2.1389-0.58565 3.4373-2.2406 4.252-1.324 0.6876-2.4444 0.7385-3.7428 0.2038-1.2731-0.53475-1.8333-1.0694-2.3934-2.2915-0.61106-1.3241-0.61106-2.5208 0.02544-3.8193 1.1203-2.2914 3.6919-3.2336 6.009-2.1898zm36.792 84.635c2.7245 1.4259 3.03 5.1686 0.58563 7.282-1.935 1.7059-4.2266 1.604-6.009-0.2547-2.2406-2.3425-1.7568-5.627 1.0694-7.0529 1.4514-0.7128 2.9282-0.7128 4.354 0.02557z"/> <path d="m563.14 729.33c-1.8586 0.91674-3.4882 2.5718-4.3539 4.5069-0.58556 1.2475-0.6366 1.6294-0.53466 3.8447 0.07642 2.1387 0.20361 2.6479 0.84021 3.8446 0.86575 1.5787 3.1828 3.59 4.736 4.0994l0.99305 0.3309v12.807l-5.1434 3.6154-5.1686 3.6154h-6.62l-6.6456-3e-5 -0.662-1.3494c-0.8148-1.6804-1.7568-2.8007-3.1064-3.7174-3.539-2.4188-8.3004-1.9096-11.33 1.2222-1.8332 1.8841-2.3934 3.5391-2.266 6.6454 0.0764 2.0877 0.1782 2.5971 0.7893 3.6155 1.0185 1.757 3.3354 3.7175 4.9649 4.1757 1.9605 0.58564 5.1687 0.4074 6.6964-0.3565 1.5277-0.73834 3.6665-2.9025 4.3539-4.4048l0.53476-1.1967 14.768-0.35644 5.2451-3.7937c2.8772-2.0625 5.8053-4.252 6.4928-4.8886l1.2731-1.0948 0.17824-2.9281c0.1018-1.604 0.20361-4.8632 0.20361-7.231l0.02551-4.3286 1.4004-0.73826c1.6042-0.84024 3.1828-2.4698 4.1502-4.354 0.5856-1.0948 0.6874-1.5787 0.6874-3.5646 0-1.986-0.1018-2.4952-0.7383-3.8701-1.4768-3.2082-3.8957-4.7105-7.7915-4.8378-2.266-0.07636-2.5206-0.05091-3.9719 0.68744zm4.736 3.5902c3.0045 0.63654 4.4048 3.5901 3.0808 6.4927-0.81469 1.8077-2.2915 2.5462-4.583 2.266-1.2476-0.15273-1.5531-0.33093-2.6226-1.4002-1.1713-1.1458-1.2222-1.2732-1.2222-2.648 0-0.7893 0.15274-1.8332 0.3565-2.2916 0.43283-1.0695 1.5786-2.1389 2.5716-2.4189 1.044-0.3055 0.96756-0.3055 2.4188 0zm-33.355 31.343c3.3609 1.7059 3.3609 6.3144 5e-5 8.0459-0.94206 0.48375-1.375 0.56016-2.4188 0.43284-3.9466-0.48374-5.5507-4.8632-2.7754-7.6386 1.4513-1.4512 3.3609-1.7568 5.1942-0.84013z"/> </g> </svg>