<svg xmlns="http://www.w3.org/2000/svg" data-name="Layer 1" viewBox="0 0 128 160" x="0px" y="0px"><path d="M53.343,26.865a.991.991,0,0,0,.446.106,1,1,0,0,0,.9-.553c.312-.624,3.259-1.21,5.02-1.56,2.491-.5,5.068-1.007,6.64-2.055,3.545-2.364,2.463-6.884,2.415-7.075a1,1,0,1,0-1.94.485c.008.034.8,3.335-1.585,4.926-1.241.827-3.727,1.321-5.921,1.757-3.167.63-5.668,1.127-6.418,2.627A1,1,0,0,0,53.343,26.865Z"/><path d="M86.688,113.712a1,1,0,0,0,1.377.324l1.97-1.22.561,1.258a1,1,0,1,0,1.826-.815l-.671-1.5,1.758-1.088a1,1,0,0,0-1.052-1.7l-1.529.946-.883-1.977a1,1,0,0,0-1.826.816l.993,2.224-2.2,1.361A1,1,0,0,0,86.688,113.712Z"/><path d="M96.041,112.808l-2.2,1.361a1,1,0,1,0,1.053,1.7l1.97-1.22.561,1.258a1,1,0,1,0,1.826-.815l-.671-1.505,1.758-1.088a1,1,0,0,0-1.052-1.7l-1.529.946-.882-1.976a1,1,0,0,0-1.827.815Z"/><path d="M105.868,80.466a9.673,9.673,0,0,0-7.588-.027L85.79,85.663V82.648l7.158-2.863a3.982,3.982,0,0,0,2.468-4.322l-.736-4.781a23.878,23.878,0,0,0,6.458-6.405c3.11-4.874,2.5-10.2-1.542-13.562A23.792,23.792,0,0,0,96.5,48.649,12.675,12.675,0,0,1,92.3,45.3a10.894,10.894,0,0,1-1.335-4.115c-.446-2.336-.952-4.983-3.406-6.523a15.152,15.152,0,0,0-3.623-1.49,11.5,11.5,0,0,1-3.507-1.52c-1.888-1.41-2.4-3.807-1.605-7.545a8.958,8.958,0,0,0,.092-3.727c-1.522-7.306-8.6-12.448-16.489-11.952-8.726.546-15.4,7.706-14.889,15.95.219,4.239-.157,8.393-4.362,10.075C39.572,35.892,36,38,36.818,42.761c.043.249.091.5.139.747a7.915,7.915,0,0,1,.225,2.586c-.248,1.672-1.91,2.328-4.616,3.211-1.857.606-3.776,1.232-4.964,2.588-2.542,2.9-.687,6.126.8,8.716a19.646,19.646,0,0,1,1.179,2.255c.555,1.374-.015,2.426-.99,4.028-.878,1.443-1.874,3.079-1.38,5.152.478,2.009,2.137,3.418,4.912,4.209a3.975,3.975,0,0,0,2.5,3.532l7.158,2.863v3.485L32.8,83.173a9.747,9.747,0,1,0-5.564,18.674l13.663,3.7L33.153,107.1l-4.445.225a.849.849,0,0,0-.1.011,6.811,6.811,0,0,0-4.934,3.373,8.484,8.484,0,0,0-.443,7.32,9.341,9.341,0,0,0,5.3,5.434,7.817,7.817,0,0,0,2.824.542,7.009,7.009,0,0,0,3.187-.757l3.55-1.848h0l7.959-4.121.409,1.061a1,1,0,0,0,.933.641.974.974,0,0,0,.333-.058l18.725-6.6L86.2,117.586a1,1,0,0,0,1.217-.681l.048-.164,7.62,3.773,3.658,2.536c.028.019.056.037.086.054a6.825,6.825,0,0,0,3.318.87,7.02,7.02,0,0,0,2.649-.529,8.484,8.484,0,0,0,4.821-5.525,9.345,9.345,0,0,0-.877-7.54,7.306,7.306,0,0,0-4.891-3.5l-3.944-.706h0l-9.172-1.662-1.114-.366,15.664-5.524a9.747,9.747,0,0,0,.586-18.156ZM45.79,58.971V46.815L57.863,44.76a12.136,12.136,0,0,0,.672,2.132,5.955,5.955,0,0,0,1.76,1.961,5.811,5.811,0,0,0,3.393,1.074,6.162,6.162,0,0,0,1.979-.329,6,6,0,0,0,3.84-3.912,6.81,6.81,0,0,0,.18-.906l12.1,2.036V58.971Zm-4,3v4.983l-8.443-3.431L43.79,49.063V59.155A3,3,0,0,0,41.79,61.971Zm52.443,1.552L85.79,66.954V61.971a3,3,0,0,0-2-2.816V49.063Zm-2.028,14.4L85.79,80.493V69.112l6.236-2.533,1.413,9.188A1.99,1.99,0,0,1,92.205,77.927Zm-63.1-24.716c.826-.943,2.48-1.482,4.081-2,2.59-.846,5.526-1.8,5.973-4.819a9.494,9.494,0,0,0-.239-3.259c-.046-.236-.091-.472-.131-.707-.477-2.772.912-4.428,5.123-6.111,5.388-2.154,5.863-7.293,5.616-12.046-.447-7.154,5.393-13.363,13.018-13.84,6.883-.431,13.085,4.025,14.406,10.364a7.03,7.03,0,0,1-.09,2.9c-.961,4.528-.188,7.656,2.364,9.563a13.169,13.169,0,0,0,4.108,1.826,13.465,13.465,0,0,1,3.156,1.275c1.716,1.077,2.081,2.99,2.5,5.2a12.492,12.492,0,0,0,1.649,4.869,14.35,14.35,0,0,0,4.835,3.937,21.965,21.965,0,0,1,2.837,1.885c3.223,2.679,3.668,6.977,1.135,10.948a23.361,23.361,0,0,1-5.106,5.309l-.416-2.7,2.237-.908a1,1,0,0,0,.434-1.512l-13-18c-.007-.01-.018-.014-.026-.023a1,1,0,0,0-.21-.2c-.024-.017-.042-.04-.066-.055a1,1,0,0,0-.343-.128L69.9,42.788c.055-.643.1-1.319.149-1.975l.258-3.287c.126-.093.263-.166.385-.267l.656-.546a10.879,10.879,0,0,0,3.736-10.374L74.494,23.2a1,1,0,1,0-1.966.37l.591,3.136a8.877,8.877,0,0,1-3.049,8.467l-.656.545a5.509,5.509,0,0,1-5.288,1l-.81-.269a1,1,0,1,0-.632,1.9l.811.27a7.6,7.6,0,0,0,2.394.39,7.456,7.456,0,0,0,2.327-.388l-.161,2.059a39.376,39.376,0,0,1-.463,4.434,4,4,0,0,1-2.57,2.595,3.885,3.885,0,0,1-3.561-.477A3.986,3.986,0,0,1,60.3,45.951c-.217-.446-.885-3.2-1.284-4.848-.227-.935-.431-1.774-.568-2.289L56.5,31.526a1,1,0,0,0-1.163-.722,1.242,1.242,0,0,1-1.259-.572,1,1,0,0,1,.707-1.409,1,1,0,0,0-.391-1.961,3,3,0,0,0-2.123,4.226,3.207,3.207,0,0,0,2.5,1.711l1.745,6.532c.134.5.334,1.327.556,2.243.109.448.208.857.3,1.241l-12.751,2.17a.993.993,0,0,0-.341.127.8.8,0,0,0-.063.053.975.975,0,0,0-.213.2c-.008.009-.019.014-.026.023l-12.4,17.174c-.045-.148-.075-.291-.136-.443a21,21,0,0,0-1.3-2.5C28.549,56.848,27.618,54.909,29.106,53.211Zm.054,18.371c-.3-1.274.367-2.375,1.144-3.65A10.244,10.244,0,0,0,31.667,65l1.983.805-1.3,8.435C30.5,73.66,29.447,72.787,29.16,71.582Zm6.215,6.345a1.99,1.99,0,0,1-1.234-2.16l0-.027c0-.008.007-.015.009-.023a.338.338,0,0,0,0-.045l1.4-9.093,6.236,2.533V80.493Zm8.415,4.026V68.426h0V61.971a1,1,0,0,1,1-1h38a1,1,0,0,1,1,1v6.454h0V86.5l-5.908,2.471H50.411L43.79,86.792ZM65.785,94.03l-9.3-3.059H73.1ZM22.99,96.215a7.746,7.746,0,0,1,9.181-11.142l30.8,10.136L42.3,103.856l-14.544-3.94A7.687,7.687,0,0,1,22.99,96.215Zm6.261,25.379a7.341,7.341,0,0,1-4.151-4.281,6.5,6.5,0,0,1,.3-5.6,4.847,4.847,0,0,1,3.461-2.4l.221-.011a7.635,7.635,0,0,0,2.681,12.409c.181.072.366.131.551.188A5.583,5.583,0,0,1,29.251,121.594Zm7.923-1.975a5.645,5.645,0,1,1-3.7-10.548l10.165-2.031c.031-.006.062-.014.092-.022l3.036-.912,2.742,7.775-3.865,1.364a.967.967,0,0,0-.128.055Zm44.67-5.266-12.05-3.216,14.04-4.951-2.329,7.079A.988.988,0,0,0,81.844,114.353Zm25.186-2.936a7.342,7.342,0,0,1,.672,5.925,6.5,6.5,0,0,1-3.66,4.251,4.846,4.846,0,0,1-4.2-.217l-.182-.126a7.635,7.635,0,0,0,5.456-11.463c-.1-.17-.215-.33-.328-.49A5.575,5.575,0,0,1,107.03,111.417Zm-16.857-4.983a1.252,1.252,0,0,0,.134.034l9.243,1.675h0a5.645,5.645,0,1,1-3.514,10.612l-9.376-4.638-2.96-1.133,2.513-7.638.313-.111Zm18.9-13.76a7.681,7.681,0,0,1-4.458,4.062L47.979,116.709l-.057-.147,3.2-1.127a1,1,0,0,0,.61-1.276l-3.393-9.617a.988.988,0,0,0-.935-.654l51.652-21.6a7.746,7.746,0,0,1,10.024,10.39Z"/><path d="M46.182,113.572a1,1,0,0,0-.407-1.354l-2.144-1.155.911-2.421a1,1,0,0,0-1.873-.7l-.815,2.169-1.212-.653a1,1,0,1,0-.949,1.76l1.451.781-.727,1.936a1,1,0,1,0,1.872.7l.632-1.683,1.906,1.027a1,1,0,0,0,1.355-.407Z"/><path d="M39.248,114.937,37.1,113.782l.911-2.422a1,1,0,1,0-1.872-.7l-.816,2.169-1.212-.653a1,1,0,1,0-.948,1.761l1.45.781-.727,1.935a1,1,0,0,0,.584,1.289,1,1,0,0,0,1.288-.584l.632-1.683L38.3,116.7a.987.987,0,0,0,.473.12,1,1,0,0,0,.475-1.88Z"/><path d="M63.79,79.438a4.468,4.468,0,1,0-4.467-4.467A4.472,4.472,0,0,0,63.79,79.438Zm0-6.935a2.468,2.468,0,1,1-2.467,2.468A2.47,2.47,0,0,1,63.79,72.5Z"/></svg>