<?xml version='1.0' encoding='utf-8'?>
<svg xmlns="http://www.w3.org/2000/svg" enable-background="new 0 0 1024 1024" version="1.1" viewBox="0 0 1024 1024"> <g fill="currentColor"> <path d="m242.23 25.88c35.302-0.061 70.605-0.259 105.89 0.015 8.887-0.061 18.535 3.521 23.123 11.569 41.506 75.528 82.875 151.18 124 226.89-14.237 24.434-26.69 49.89-40.79 74.4-6.966 13.155-14.572 25.989-20.974 39.433-30.47-55.667-60.666-111.5-90.984-167.24-33.321-61.748-67.358-123.1-100.27-185.06z"/> <path d="m647.34 30.285c10.091-5.792 22.041-4.375 33.168-4.603 22.879 0.152 45.774-0.412 68.653 0.244 8.856 0.03 17.422 2.393 26.035 4.1-0.594 1.936-1.311 3.826-2.302 5.579-59.995 111.87-119.02 224.24-179.01 336.1-3.277 5.228-5.213 11.783-10.518 15.38-9.405 5.64-20.944 3.292-31.354 3.795 0.091 19.099 0.076 38.198-0.03 57.298-25.821-4.359-52.328-3.856-78.195-0.183-0.335-19.084-0.351-38.168-0.29-57.237-8.018-0.015-16.066 0.32-24.053-0.534 12.652-25.135 26.873-49.448 39.768-74.461 47.588-88.195 94.84-176.57 142.54-264.72 4.253-7.484 7.485-16.553 15.594-20.76z"/> <path d="m199.23 44.049c4.893-7.515 13.155-11.6 21.172-14.938 37.528 68.059 74.019 136.7 111.42 204.82 26.964 49.707 53.898 99.429 80.954 149.06-15.959-0.96-32.299 1.6-47.923-2.744-17.59-4.405-33.427-16.051-42.223-31.995-31.796-57.663-63.623-115.31-95.084-173.17-10.38-18.672-20.776-37.36-31.339-55.926-4.192-6.829-7.149-14.481-7.591-22.544-1.159-17.924 0.137-37.298 10.609-52.556z"/> <path d="m393.14 35.787c74.766 0.03 149.55-0.274 224.31-0.015-27.559 52.588-56.063 104.69-84.049 157.03-18.2 0.168-36.415 0.244-54.615-0.015-28.534-52.344-57.236-104.6-85.649-157z"/> <path d="m793.75 38.394c16.386 9.451 32.528 22.163 39.357 40.439 4.558 11.402 2.866 24.465-2.744 35.18-42.116 77.266-84.536 154.38-126.52 231.74-8.521 16.31-23.916 28.672-41.491 33.93-16.66 5.091-34.281 2.683-51.414 3.079 58.685-109.23 116.12-219.13 174.56-328.5 2.759-5.289 5.549-10.563 8.247-15.867z"/> <path d="m563.28 408.64c5.96 0.259 11.935-0.015 17.88 0.442 14.953 1.997 26.4 16.173 26.644 31.004 0.061 7.164-0.152 14.313 0.046 21.477-8.048-3.125-16.34-5.533-24.693-7.606-0.457-6.234 2.545-15.471-4.619-18.84-4.969-0.869-10.045-0.29-15.06-0.488-0.091-8.673 0.031-17.331-0.198-25.989z"/> <path d="m424.8 418.93c9.268-10.792 24.465-10.258 37.406-9.954-0.229 8.704-0.122 17.407-0.122 26.126-6.341 0.549-14.054-2.241-19.389 2.18-2.881 5.122-1.326 11.554-1.799 17.24-8.277 1.905-16.538 4.116-24.358 7.469 0.656-14.496-2.743-31.431 8.262-43.061z"/> <path d="m495.42 464.31c58.99-3.978 119 12.834 167.66 46.307 45.454 30.653 80.832 75.818 100.04 127.16 21.858 57.313 22.818 122.34 2.637 180.26-16.706 48.121-47.481 91.289-87.631 122.64-38.61 30.547-85.71 50.545-134.7 56.017-27.178 2.957-54.798 2.134-81.686-2.927-56.002-10.685-108.16-39.89-146.73-81.838-38.747-41.354-64.507-95.206-70.162-151.74-7.591-63.501 10.563-128.85 47.039-181.04 30.043-43.015 72.799-77.281 121.71-96.41 26.05-10.532 53.868-16.263 81.823-18.428m-13.718 56.307c-32.65 4.801-64.142 17.331-91.121 36.354-44.021 30.348-76.107 77.738-87.219 130.11-12.072 55.408-0.838 115.71 31.553 162.41 29.297 42.268 73.592 73.882 123.36 87.173 35.638 9.511 73.775 9.45 109.38-0.229 48.045-13.063 90.71-43.914 119.17-84.658 31.354-43.671 43.991-99.871 35.866-152.88-7.606-53.792-38.046-103.36-80.893-136.39-44.892-34.723-103.93-50.469-160.1-41.887z"/> <path d="m493.86 535.8c54.234-5.259 110.28 13.231 150.38 50.195 22.895 20.944 40.866 47.268 51.917 76.275 19.648 52.892 15.746 114.55-12.255 163.77-26.583 47.1-72.708 82.982-125.42 95.694-58.608 14.328-123.34-0.396-170.06-38.534-20.029-16.767-37.741-36.674-50.133-59.752-28.169-51.124-30.897-115.42-7.438-168.83 20.562-47.756 60.636-86.823 109.05-105.88 17.316-6.615 35.47-11.173 53.959-12.941m-0.137 16.691c-61.367 6.112-118.3 45.683-144.5 101.62-17.194 34.815-21.889 75.452-13.871 113.38 10.518 52.572 46.887 98.407 94.216 122.96 50.164 26.507 113.28 27.193 163.65 0.869 25.852-13.551 48.716-32.955 65.483-56.917 30.333-42.421 41.018-98.423 27.544-148.89-13.734-53.182-53.472-98.804-104.24-119.7-27.606-12.043-58.366-16.417-88.272-13.323z"/> <path d="m503.16 631.29c2.393-4.588 3.78-10.06 7.865-13.49 4.344-0.96 5.716 3.978 7.393 6.89 8.795 19.084 17.529 38.214 26.324 57.298 1.387 2.607 2.561 6.265 6.173 6.173 21.828 3.292 43.854 5.137 65.696 8.231 2.805 0.411 6.631 1.082 7.24 4.466 0.412 2.82-1.936 4.801-3.643 6.646-16.66 15.7-34.418 30.211-50.804 46.201 4.329 23.962 9.572 47.786 12.941 71.9 1.509 4.558-3.872 7.53-7.377 4.817-20.166-10.975-39.738-23.093-59.828-34.22-1.783-1.341-3.978-1.113-5.731 0.137-18.413 10.457-36.766 21.05-55.331 31.232-3.079 1.479-6.067 3.887-9.633 3.75-2.835-0.244-3.506-3.475-2.881-5.746 3.689-23.977 9.115-47.649 13.048-71.58-16.98-16.523-34.982-31.979-52.328-48.121-1.296-1.555-3.613-3.064-2.927-5.381 0.442-3.14 3.948-3.536 6.448-3.78 20.471-2.302 40.942-4.618 61.383-7.271 3.186-0.549 6.661-0.259 9.603-1.814 9.343-18.506 17.361-37.666 26.369-56.338z"/> </g> </svg>