<?xml version='1.0' encoding='utf-8'?>
<svg xmlns="http://www.w3.org/2000/svg" viewBox="80 40 480 400"> <g fill="currentColor" fill-rule="evenodd" stroke-width=".312"> <path d="m160.48 340.59-9.8101-5.3548v-6.6935l9.2651-13.387-5.4501-10.71 3.815-12.048 11.99-5.3548 14.17-8.0323 11.99-10.04 8.7201 6.0242 0.545 7.3629-2.725 8.7016-4.9051-2.0081 1.09 23.427 7.0851 30.79h-7.6301l-4.36-19.411-2.725-9.371-1.09-13.387-3.27 13.387 4.9051 7.3629 1.635 9.3709-6.5401 6.6936-2.725-2.6774 1.09-10.71-5.4501-13.387-7.0851 4.0161v22.089l7.6301 8.0323v2.6774h-13.625l-2.18-4.6855v-14.726l-1.09-4.0161h-2.725l-3.8151 8.7016 4.9051 2.0081-1.635 5.3548z"/> <path d="m191.67 287.71-1.2223 13.387-3.27 13.387 4.9051 7.3629 1.635 9.3709-6.5401 6.6936-2.725-2.6774 1.09-10.71-5.4501-14.056 1.6624-17.007c2.1488-8.5433 6.2246-11.407 9.915-5.751z"/> <path d="m159.93 315.15-5.0567-11.379 3.4217-11.379c9.915 0.48645 8.2686 18.012 14.715 22.758v22.089l7.6301 8.0323v2.6774h-13.625l-2.18-4.6855v-14.726l-1.09-4.0161-3.815-9.371z"/> <path d="m196.45 268.97c5.0868-2.008 7.721 2.3428 8.7201 6.0242 3.6334 8.7017 0.18167 11.714-2.18 16.064l-4.9051-2.0081-3.9005-10.04-3.2273-5.0202 5.4928-5.0201z"/> <path d="m216.63 346.56 7.6301 5.3548h11.99l-2.18-6.0242-4.9051 0.6694-3.8151-4.6855v-10.71l7.0851-8.0323 3.8151-18.742h4.36v16.734l1.09 6.0242 2.1801 8.0323-1.635 15.395h17.985l5.4501-3.3468-11.445-6.0242-2.725-45.516-5.4501-20.75 2.1801-6.0242v-49.532l7.3576-1.3387 1.3625-4.6855c-1.9075-10.487-3.8151-14.28-11.445-19.411h-8.7201c-1.4533 2.0081-2.0892 5.6895-1.09 11.044l-2.18 9.0363-7.6301 8.7016-2.1801 52.879 2.725 6.6936-0.545 22.758-7.0851 14.726-2.18 26.774z"/> <path d="m239.52 296.36-4.9051-13.387v-12.718c-3.27-18.965 3.27-34.583-2.18-52.879l-6.5401 5.3548 0.545 47.524 3.8151 12.048-0.545 13.387 9.8101 0.6693z"/> <path d="m239.52 304.39 1.09 16.734 1.09 6.0242 2.1801 8.0323-1.635 15.395h17.985l5.4501-3.3468-11.445-6.0242-2.725-45.516-10.9-24.766-7.0851-6.6936-8.7201 6.6935 1.635 11.379 13.08 22.089z"/> <path d="m248.24 219.39 7.3576-1.3387 1.3625-4.6855c-1.9075-10.487-3.8151-14.28-11.445-19.411h-8.7201c-1.4533 2.0081-2.0892 5.6896-1.09 11.044 1.8662 6.6903 5.6592 12.434 12.535 14.391z"/> <path d="m313.09 268.25 1.635-26.105 4.36-12.718-2.18-24.097-4.3601-8.7016 2.7251-6.6935 7.6301 0.6693 3.27-5.3548-2.6976-8.9313-2.2074-5.1588-3.815-7.9986-13.08 2.0081-5.6371 8.3432-0.9965 17.37-4.8116 7.755-7.6301 28.782 0.545 21.419 2.725 24.766-0.6385 15.706 9.3586 4.3746-1.6351 10.71-11.99 28.782-5.995 14.726 15.805 8.7016 8.7201 0.6694-0.545-5.3549-9.2651-9.3709 14.715-30.79 1.09-13.387 7.0851 3.3468v23.427l13.08 26.774-1.09 3.3468 20.71-1.3387-1.635-2.6774-13.08-7.3629-9.2651-48.194-10.9-27.444z"/> <path d="m313.09 272.51c-3.936-9.2588-10.184-12.365-17.588-10.738-1.7178 7.7979-1.1234 21.276 6.0225 28.127l6.661 8.4719 7.0851 3.3468v23.427l13.08 26.774-1.09 3.3468 20.71-1.3387-1.635-2.6774-13.08-7.3629-9.2651-48.194-10.9-23.184z"/> <path d="m293.44 266.83c1.1873-15.328 4.3015-24.503 2.4058-38.884l9.7554-22.184c-0.69327-8.2732-3.6989-12.76-7.8605-14.88l-4.8116 7.755-7.6301 28.782 0.545 21.419 2.725 24.766-0.6385 15.706 8.9732 1.5348 1.261-7.9337-4.7247-16.082z"/> <path d="m315.28 189.93c3.6333 1.7513 8.4229-0.75714 10.9-4.6855 0.94711-11.623-3.1157-16.146-8.7201-22.089l-13.08 2.0081-5.6371 8.3432-0.9965 17.37c5.0738 3.4709 11.689 4.102 17.534-0.94659z"/> <path d="m369.21 347.2c-2.0652-3.3257-2.9741-8.5446-1.9563-14.237l6.4327-9.6478 6.4327-1.6016 2.5789 20.644-3.2017 6.9179 1.0373 5.498 17.223-0.1817 7.0847-0.3634-1.269-5.0439-11.379-2.0081 3.8151-55.556 1.09-14.056h8.175v-11.379l-7.6301-8.7016-1.635-3.3468 0.545-10.71c-1.09-16.288 6.2983-29.262-0.57239-46.496l-4.3327-6.3826v-8.0323l8.4283 0.9466 3.8811-7.3629c0.060791-9.7565-7.2006-16.673-14.462-21.697l-10.928 4.6855-4.36 4.6855-1.635 16.734-8.7202 20.75 3.2701 20.081 4.905 10.71-1.635 12.048c-5.6211 7.9511-3.5345 18.742 1.635 28.113l3.2701 22.089 0.4128 8.4719-10.807 6.3015-4.2004 15.476-7.206 9.9115 5.9677 18.073c7.8725 3.9026 14.974 1.6523 9.744-5.331z"/> <path d="m369.21 347.2c-2.0652-3.3257-2.9741-8.5446-1.9563-14.237l6.4327-9.6478 6.4327-3.9681 10.109-11.635c-3.4001-23.73 0.13669-63.079-20.605-65.51-4.5934 10.475-3.4061 21.424 2.4058 30.006l3.2701 22.089 0.4128 8.4719-10.807 6.3015-4.2004 15.476-7.206 9.9115 5.9677 18.073c7.8725 3.9026 14.974 1.6523 9.744-5.331z"/> <path d="m393.7 268.42 3.4023 9.1355h8.175v-11.379l-7.6301-8.7016-1.635-3.3468-12.172-15.443c-3.3689-20.815-6.3524-40.684-12.419-48.72l-7.564 11.284 3.2701 20.081 4.905 10.71 5.3018 17.728 16.366 18.653v-3.1e-5z"/> <path d="m391.65 182.51 8.4283 0.9466 3.8811-7.3629c0.060791-9.7565-7.2006-16.673-14.462-21.697l-10.928 4.6855-4.36 4.6855-1.635 16.734 19.075 2.008z"/> <path d="m448.99 315.57c0.18167 9.8172 2.0975 25.077-0.033081 37.734-0.9083 2.6774 18.734 2.4067 29.271 1.9605-0.54495-1.7849-1.09-5.4631-1.6351-7.248-5.0867-3.3468-10.174-2.9071-15.26-6.2539-0.72668-2.6774-1.4534-7.248-2.1801-9.9255 0-7.1398 3.8416-17.582 3.8416-24.722 3.4517-3.1237 3.0619-2.9447 6.5136-6.0683 0.18167-20.75 0.35962-41.027-2.9161-61.777 2.7251 8.9247 6.442 3.8193 11.391 16.572 0.60843 4.9455 1.5555 8.996 4.8776 11.068 4.7688 1.8408 6.4686-2.2826 6.11-3.8906-0.99847-4.4763-4.5176-8.8271-5.744-11.17-5.9923-7.0044-7.3602-17.738-12.084-23.762-0.36343-37.149-2.2936-45.751-9.8101-58.903 0.36331-2.6774 0.72665-5.3548 1.09-8.0323 2.3617-0.22311 4.7233-0.44623 7.085-0.66934 0.68256-5.6862 2.6756-12.92-1.635-20.081-0.54504-3.5699-3.98-17.674-11.897-12.163-6.876 1.1763-6.8152 6.139-10.994 10.155-0.18164 5.1317-0.36334 10.263-0.54498 15.395l4.36 4.0161c0.18173 1.3387 0.36334 2.6774 0.54501 4.0161-2.5434 4.9086-5.0868 9.8172-7.6301 14.726-0.36334 3.793-0.72668 7.586-1.09 11.379 0.90832 12.048 1.8166 24.097 2.725 36.145-0.54504 4.4623-1.09 8.9247-1.635 13.387-0.18167 3.5699-0.36334 7.1398-0.54495 10.71 0.54495 1.3387 1.0899 2.6774 1.6349 4.0161 2.3618 12.941 4.338 28.485 6.6998 41.426-7.9934 8.7016-15.602 14.8-23.595 23.502-6.4492 5.2433-11.082 4.5739-8.4476 14.726 0.54498 7.5861 1.3625 14.503 1.9075 22.089 3.27 2.0081 5.1775 0.66937 6.54-2.3427 0.54507-5.3548 0-12.048 0.54507-17.403 2.3617-4.4623 3.6334-4.2393 5.9951-8.7016 4.7234-2.0081 11.82-7.9006 16.543-9.9087z"/> <path d="m448.8 316.75c4.0355-4.6186 7.2721-2.0352 10.355-6.3351 3.4518-3.1236 6.9035-6.2473 10.355-9.3709 0.18167-20.75-4.1497-57.295-15-69.165-3.628-0.98061-12.25 1.1137-12.795 5.5761-0.18167 3.5699-0.36334 7.1398-0.54495 10.71 0.54495 1.3387 1.0899 2.6774 1.6349 4.0161 2.3618 12.941 5.8796 29.668 11.324 38.586-9.7277 4.6785-20.226 17.64-28.22 26.342-6.4492 5.2433-11.082 4.5739-8.4476 14.726 0.54498 7.5861 1.3625 14.503 1.9075 22.089 3.27 2.0081 5.1775 0.66937 6.54-2.3427 0.54507-5.3548 0-12.048 0.54507-17.403 2.3617-4.4623 3.6334-4.2393 5.9951-8.7016 4.7234-2.0081 11.627-6.7174 16.35-8.7254z"/> <path d="m453.71 199.3c0.36334-13.164-0.90839-25.659-3.8151-30.79 0.36334-2.6774-5.6317 3.1237-8.175 8.0322-0.36334 3.793-0.72668 7.586-1.09 11.379 0.90832 12.048 0.72665 29.452 1.635 41.5-0.27246 2.2312 3.7091 10.808 5.598 22.219 1.2435 7.5117 2.9184 14.075 9.2768 19.207 4.1784-1.0041 2.5018-15.053-1.9192-24.896-5.6036-12.476-3.2364-38.06-1.5105-46.65z"/> <path d="m461.34 169.18c0.36331-2.6774 0.72665-5.3548 1.09-8.0323 2.3617-0.22311 4.7233-0.44623 7.085-0.66934 0.68256-5.6862 2.6756-12.92-1.635-20.081-0.54504-3.5699-3.98-17.674-11.897-12.163-6.876 1.1763-6.8152 6.139-10.994 10.155-0.18164 5.1317-0.36334 10.263-0.54498 15.395l4.36 4.0161c0.18173 1.3387 0.36334 2.6774 0.54501 4.0161-2.5434 4.9086 14.897 12.495 11.99 7.3629z"/> </g> </svg>